<?xml version="1.0" encoding="UTF-8" standalone="no"?><!DOCTYPE svg PUBLIC "-//W3C//DTD SVG 1.1//EN" "http://www.w3.org/Graphics/SVG/1.1/DTD/svg11.dtd"><svg width="100%" height="100%" viewBox="0 0 38 38" version="1.1" xmlns="http://www.w3.org/2000/svg" xmlns:xlink="http://www.w3.org/1999/xlink" xml:space="preserve" xmlns:serif="http://www.serif.com/" style="fill-rule:evenodd;clip-rule:evenodd;stroke-linejoin:round;stroke-miterlimit:1.41421;"><rect x="0" y="0" width="37.712" height="37.7" style="fill:#0a6d85;"/><path d="M27.972,11.264l-2.504,8.549c-0.542,1.937 -1.038,3.584 -1.376,5.232l-0.045,0c-0.248,-1.556 -0.746,-3.427 -1.241,-5.279l-2.255,-8.502l-1.039,0l-2.481,8.57c-0.609,1.987 -1.15,3.789 -1.397,5.211l-0.048,0c-0.292,-1.422 -0.765,-3.248 -1.262,-5.211l-2.21,-8.57l-0.038,0l0,-0.031l-3.44,0l0,0.816l2.581,0l3.807,14.418l1.016,0l2.593,-8.777c0.677,-2.209 1.106,-3.721 1.354,-5.117l0.045,0c0.203,1.42 0.563,2.908 1.172,5.144l2.279,8.75l1.037,0l4.557,-15.203l-1.105,0Z" style="fill:#fff;fill-rule:nonzero;"/></svg>