<?xml version="1.0" standalone="no"?>
<!DOCTYPE svg PUBLIC "-//W3C//DTD SVG 20010904//EN"
 "http://www.w3.org/TR/2001/REC-SVG-20010904/DTD/svg10.dtd">
<svg version="1.0" xmlns="http://www.w3.org/2000/svg"
 width="260.000000pt" height="260.000000pt" viewBox="0 0 260.000000 260.000000"
 preserveAspectRatio="xMidYMid meet">
<metadata>
Created by potrace 1.14, written by Peter Selinger 2001-2017
</metadata>
<g transform="translate(0.000000,260.000000) scale(0.100000,-0.100000)"
fill="#000000" stroke="none">
<path d="M1480 1800 c-85 -88 -157 -162 -159 -165 -3 -3 -5 -138 -5 -301 -1
-254 1 -297 14 -303 8 -4 221 -7 472 -6 l457 1 131 130 c72 71 136 140 143
154 8 15 13 61 13 115 l-1 90 -177 1 -178 2 0 -104 0 -104 -292 2 -293 3 0
108 1 107 72 73 72 72 395 0 395 0 0 142 0 143 -453 0 -453 0 -154 -160z"/>
<path d="M613 1626 c-11 -17 -7 -268 4 -274 6 -4 71 -6 145 -5 73 1 140 0 148
-3 12 -3 15 -23 15 -101 l1 -98 -111 -110 -110 -110 -315 1 c-173 0 -319 -2
-325 -5 -12 -7 -14 -91 -3 -91 5 0 5 -8 1 -17 -7 -15 -8 -84 -4 -154 1 -17 41
-35 41 -19 0 9 20 8 37 -3 6 -4 14 -3 18 3 4 7 12 7 26 0 13 -8 25 -7 40 0 15
8 24 8 34 0 9 -8 15 -8 20 0 3 6 12 7 18 3 17 -10 40 -10 55 1 7 5 17 4 26 -3
10 -8 16 -9 21 -1 4 7 12 7 26 0 13 -8 25 -7 40 0 15 8 24 8 34 0 9 -8 15 -8
20 0 3 6 12 7 18 3 17 -10 40 -10 55 1 7 5 17 4 26 -3 10 -8 16 -9 21 -1 4 7
12 7 26 0 13 -8 25 -7 40 0 14 8 24 8 33 1 9 -7 16 -7 23 0 7 7 13 7 17 0 16
-25 73 21 248 197 l186 188 1 302 0 301 -295 3 c-163 2 -298 -1 -301 -6z"/>
</g>
</svg>
