<svg width="20" height="21" viewBox="0 0 20 21" fill="none" xmlns="http://www.w3.org/2000/svg"><path d="M0 7.71647V4.10824L3.60824 0.5H7.21647V4.10824H5.4129L3.60824 5.95794V7.71647H0Z" fill="var(--package-color)"/><path d="M19.9977 7.71647V4.10824L16.3895 0.5H12.7812V4.10824H14.5859L16.3895 5.95794V7.71647H19.9977Z" fill="var(--package-color)"/><path d="M19.9977 13.2837V16.8919L16.3895 20.5002H12.7812V16.8919H14.5859L16.3895 15.0422V13.2837H19.9977Z" fill="var(--package-color)"/><path d="M0 13.2837V16.8919L3.60824 20.5002H7.21647V16.8919H5.4129L3.60824 15.0422V13.2837H0Z" fill="var(--package-color)"/><path d="M14.6377 5.86084H12.7816L9.99797 8.64445L7.21436 5.86084H5.35938V7.71583L8.14298 10.4994L5.35938 13.283V15.1392H7.21436L9.99797 12.3555L12.7816 15.1392H14.6377V13.283L11.8541 10.4994L14.6377 7.71583V5.86084Z" fill="var(--package-color)"/></svg>