<?xml version="1.0" standalone="no"?>
<!DOCTYPE svg PUBLIC "-//W3C//DTD SVG 1.1//EN" "http://www.w3.org/Graphics/SVG/1.1/DTD/svg11.dtd" >
<svg xmlns="http://www.w3.org/2000/svg">
<metadata>
<json>
<![CDATA[
{
	"fontFamily": "icomoon",
	"majorVersion": 4,
	"minorVersion": 4,
	"version": "Version 4.4",
	"fontId": "icomoon",
	"psName": "icomoon",
	"subFamily": "Regular",
	"fullName": "icomoon",
	"description": "Font generated by IcoMoon."
}
]]>
</json>
</metadata>
<defs>
<font id="icomoon" horiz-adv-x="1024">
<font-face units-per-em="1024" ascent="960" descent="-64" />
<missing-glyph horiz-adv-x="1024" />
<glyph unicode="&#x20;" horiz-adv-x="512" d="" />
<glyph unicode="&#xe900;" glyph-name="pine" data-tags="ikone1-100 copy-01" d="M996.544 370.752c-8.256 10.944-22.336 24.064-37.632 36.032 0 14.016-9.408 26.688-13.568 32.256l-149.568 199.296c-10.88 14.4-26.752 24.512-44.672 28.928 1.984 16.576-2.368 33.664-12.864 47.68l-56.64 75.584c-10.944 14.592-27.072 24.704-45.184 29.056 1.536 16.448-3.328 33.28-14.592 47.040-76.544 93.376-101.696 93.376-109.952 93.376-11.776 0-33.6 0-179.584-184.512-11.392-14.464-16.576-31.424-15.424-47.744-17.344-4.672-32.832-14.592-43.392-28.672l-78.976-105.344c-10.496-14.016-14.784-30.976-12.8-47.424-17.92-4.608-33.856-14.656-44.672-29.184l-103.552-138.048c-14.784-19.648-20.864-41.472-16.896-59.584 0.896-4.032 2.368-7.68 4.16-11.008-0.96-14.976 9.984-28.416 15.232-34.816l129.088-155.84c11.392-13.76 27.904-23.36 46.272-27.392-1.344-16.256 3.648-32.832 14.848-46.336l51.712-62.4c21.696-26.048 63.488-45.696 97.28-45.696h273.28c25.088 0 36.672 8.32 41.984 17.472 21.76 2.24 41.984 12.16 55.36 28.16l123.648 148.992c9.28 11.136 23.168 30.848 25.024 49.536 14.016 4.992 26.624 12.992 35.776 24.064l57.408 69.376c24.128 29.056 27.968 71.68 8.896 97.152zM127.040 298.688c-0.64 0.256-1.344 0.64-1.856 1.024 0.576 0.384 1.28 0.768 1.984 1.216l199.104 107.264c15.232 8.192 46.592 8.512 62.016 0.576l180.928-93.056c0.448-0.192 0.768-0.384 1.216-0.64-0.448-0.128-0.768-0.384-1.216-0.64l-205.248-110.016c-15.296-8.256-46.080-8.256-61.376 0l-175.552 94.272zM799.616 197.312c1.472-0.832 2.624-1.6 3.456-2.176-0.768-0.768-1.856-1.6-3.328-2.56l-195.008-120.448c-14.144-8.768-43.584-9.472-58.112-1.408l-159.552 87.808c-0.96 0.448-1.728 0.96-2.304 1.408 0.64 0.384 1.344 0.832 2.304 1.408l205.248 110.016c15.36 8.256 46.656 8.448 62.080 0.576v0l145.216-74.624zM621.888 353.088c-11.712 0-22.72 2.24-30.272 6.208l-180.928 92.992c-0.448 0.192-0.832 0.384-1.216 0.64 0.384 0.128 0.768 0.384 1.216 0.64l151.040 80.896c15.168 8.128 45.952 8.256 61.312 0.192 0 0 0 0 0.064 0l177.6-94.528c0.512-0.192 0.96-0.448 1.408-0.768-0.576-0.384-1.152-0.64-1.792-1.024l-146.624-78.656c-7.808-4.096-19.648-6.592-31.808-6.592zM869.248 459.072l-45.76 24.384c-0.128 0-0.128 0-0.192 0.128l-177.088 94.208c-0.064 0.128-0.128 0.128-0.256 0.128-0.64 0.384-1.152 0.64-1.664 1.024 0.512 0.256 1.152 0.64 1.792 1.024l70.848 37.952c12.096 6.464 31.68 2.048 39.872-8.768l112.448-150.080zM699.2 685.568c3.264-4.416 4.544-9.28 3.584-13.696-0.96-4.608-4.16-8.448-8.96-11.072l-70.912-37.888c-15.232-8.256-45.952-8.256-61.248-0.192v0.128l-114.88 61.056c-0.64 0.256-1.28 0.64-1.856 1.024 0.576 0.256 1.216 0.64 1.856 1.024l155.968 83.968c12.032 6.528 31.616 2.176 39.808-8.768l56.64-75.584zM370.624 745.152c53.248 67.264 118.976 144.064 142.72 163.52 14.272-10.112 44.672-41.152 70.784-72.96 3.392-4.096 4.8-8.512 3.904-12.544-0.768-3.904-3.776-7.36-8.448-9.92l-166.72-88.64c-15.104-4.48-35.136-4.032-44.032 0.64-1.984 1.088-3.072 2.432-3.456 4.544-0.704 3.328 0.256 9.088 5.248 15.36zM233.536 564.48l78.976 105.28c5.568 7.296 15.872 12.096 26.304 12.096 4.992 0 9.792-1.024 13.76-3.2l185.92-98.944c0.128 0 0.256-0.064 0.32-0.192 0.576-0.32 1.152-0.64 1.6-0.96-0.512-0.256-1.088-0.64-1.728-1.024l-151.104-80.896c-7.808-4.096-19.648-6.656-31.744-6.656-11.776 0-22.784 2.24-30.4 6.080l-86.4 44.544c-4.864 2.432-8.064 6.144-9.024 10.496-0.96 4.288 0.256 8.96 3.52 13.376zM72.512 349.76l103.552 138.048c8.256 11.008 28.224 15.744 40.576 9.28l86.4-44.416c0.512-0.256 0.896-0.448 1.28-0.64-0.384-0.256-0.768-0.576-1.28-0.768l-199.040-107.392c-11.456-6.144-26.048-10.048-37.184-10.048-0.896 0-1.6 0-2.304 0.064 0.896 3.648 3.2 9.472 8 15.872zM122.688 245.568l156.864-84.16c0.768-0.448 1.408-0.832 1.984-1.152-0.576-0.384-1.216-0.768-1.984-1.088l-34.432-18.432c-4.224-2.24-9.408-3.456-14.976-3.456-10.752 0-21.568 4.608-27.52 11.712l-79.936 96.576zM375.168-15.296c-19.008 0-47.488 13.44-59.648 28.16l-51.776 62.4c-3.328 4.096-4.8 8.512-3.968 12.416 0.768 3.904 3.712 7.488 8.384 9.92l34.496 18.496c7.488 3.904 18.368 6.272 29.952 6.272 11.712 0 23.36-2.496 30.848-6.656l237.888-131.072h-226.176zM708.16 12.864c-8.96-10.88-29.632-14.784-41.984-8.064v0l-7.488 4.096-28.16 15.616c-2.048 1.024-3.392 2.176-4.224 2.88 0.832 0.832 2.112 1.856 4.096 3.072l189.76 117.12-112-134.72zM950.144 304.832l-57.536-69.312c-9.024-11.008-30.464-15.424-43.136-8.896l-172.672 88.768c-0.448 0.256-0.768 0.448-1.152 0.64 0.384 0.256 0.768 0.448 1.152 0.64l146.56 78.656c15.296 8.128 46.016 8.128 61.376 0.128l16.064-8.512c20.032-10.688 46.464-31.872 56.704-45.568 4.288-5.824 3.584-23.296-7.36-36.544z" />
<glyph unicode="&#xe901;" glyph-name="close" data-tags="ikone1-100 copy-02" d="M1014.208 871.68l-79.168 78.528-423.040-423.296-423.68 423.296-78.528-79.168 423.36-423.040-423.36-423.616 79.168-78.592 423.040 423.36 423.68-423.36 78.528 79.168-423.36 423.040z" />
<glyph unicode="&#xe902;" glyph-name="ddown" data-tags="ikone1-100 copy-03" d="M196.16 506.56l-72.32-72.384 388.16-388.224 388.16 388.224-72.32 72.384-315.84-315.776zM196.16 850.048l-72.32-72.384 388.16-388.224 388.16 388.224-72.32 72.384-315.84-315.712z" />
<glyph unicode="&#xe903;" glyph-name="dup" data-tags="ikone1-100 copy-04" d="M827.84 389.44l72.32 72.384-388.16 388.224-388.16-388.224 72.32-72.384 315.84 315.776zM827.84 45.952l72.32 72.384-388.16 388.224-388.16-388.224 72.32-72.384 315.84 315.712z" />
<glyph unicode="&#xe904;" glyph-name="dleft" data-tags="ikone1-100 copy-05" d="M570.56 763.84l-72.384 72.384-388.224-388.224 388.224-388.16 72.384 72.384-315.776 315.776zM914.048 763.84l-72.384 72.384-388.224-388.224 388.224-388.16 72.384 72.384-315.712 315.776z" />
<glyph unicode="&#xe905;" glyph-name="dright" data-tags="ikone1-100 copy-06" d="M525.824 836.224l-72.384-72.384 315.776-315.84-315.776-315.776 72.384-72.384 388.224 388.16zM182.336 836.224l-72.384-72.384 315.712-315.84-315.712-315.776 72.384-72.384 388.224 388.16z" />
<glyph unicode="&#xe906;" glyph-name="up" data-tags="ikone1-100 copy-07" d="M511.936 678.336l388.224-388.288-72.384-72.384-315.84 315.776-315.776-315.776-72.384 72.384z" />
<glyph unicode="&#xe907;" glyph-name="down" data-tags="ikone1-100 copy-08" d="M512.064 217.664l-388.224 388.288 72.32 72.384 315.904-315.776 315.776 315.776 72.32-72.384z" />
<glyph unicode="&#xe908;" glyph-name="left" data-tags="ikone1-100 copy-09" d="M281.664 448.064l388.288-388.224 72.384 72.32-315.776 315.904 315.776 315.776-72.384 72.32z" />
<glyph unicode="&#xe909;" glyph-name="right" data-tags="ikone1-100 copy-10" d="M742.336 448.064l-388.288-388.224-72.384 72.32 315.776 315.904-315.776 315.776 72.384 72.32z" />
<glyph unicode="&#xe90a;" glyph-name="plus-circle" data-tags="ikone1-100 copy-11" d="M512 870.4c232.896 0 422.4-189.504 422.4-422.464 0-232.896-189.504-422.336-422.4-422.336s-422.4 189.44-422.4 422.336c0 232.96 189.504 422.464 422.4 422.464zM512 960c-282.368 0-512-229.696-512-512.064s229.632-511.936 512-511.936 512 229.632 512 511.936-229.632 512.064-512 512.064v0zM768 492.8h-211.2v211.2h-89.6v-211.2h-211.2v-89.6h211.2v-211.2h89.6v211.2h211.2z" />
<glyph unicode="&#xe90b;" glyph-name="zoom" data-tags="ikone1-100 copy-12" d="M576 620.864h-147.2v147.136h-89.664v-147.136h-147.136v-89.664h147.136v-147.2h89.664v147.2h147.2zM1023.936-0.576l-338.752 338.752c51.712 65.472 82.816 147.904 82.816 237.76 0 212.032-171.904 384-384 384s-384-171.904-384-384 171.904-384 384-384c89.856 0 172.352 31.104 237.76 82.816l338.752-338.752 63.424 63.424zM384.064 281.6c-162.304 0-294.4 132.032-294.4 294.4s132.032 294.4 294.4 294.4 294.4-132.032 294.4-294.4-132.096-294.4-294.4-294.4z" />
<glyph unicode="&#xe90c;" glyph-name="search" data-tags="ikone1-100 copy-13" d="M1023.936-0.576l-338.752 338.752c51.712 65.472 82.816 147.904 82.816 237.76 0 212.032-171.904 384-384 384s-384-171.904-384-384 171.904-384 384-384c89.856 0 172.352 31.104 237.76 82.816l338.752-338.752 63.424 63.424zM384.064 281.6c-162.304 0-294.4 132.032-294.4 294.4s132.032 294.4 294.4 294.4 294.4-132.032 294.4-294.4-132.096-294.4-294.4-294.4z" />
<glyph unicode="&#xe90d;" glyph-name="import" data-tags="ikone1-100 copy-14" d="M179.2 870.4h756.16v-844.8h-666.56v510.784h-89.6v-600.384h845.76v1024h-845.76zM801.408 413.504l-154.304-154.304v208.32h-0.192c0 154.752-125.888 280.704-280.64 280.704h-366.272v-89.6h366.272c105.344 0 191.040-85.696 191.040-191.040h0.128v-208.32l-154.688 154.624-63.36-63.36 217.6-217.6c25.024-25.024 65.536-25.024 90.496 0l217.216 217.216-63.296 63.36z" />
<glyph unicode="&#xe90e;" glyph-name="project" data-tags="ikone1-100 copy-15" d="M1015.424 521.856c-6.464 7.296-15.744 11.392-25.6 11.392h-102.464v213.44c0 18.944-15.168 34.112-34.048 34.112h-34.176v145.088c0 18.944-15.168 34.112-34.048 34.112h-546.176c-18.88 0-34.048-15.168-34.048-34.112v-145.088h-34.176c-18.88 0-34.112-15.168-34.112-34.112v-145.088h-102.4c-9.792 0-19.008-4.096-25.472-11.392-6.528-7.168-9.536-16.832-8.512-26.496l68.352-597.376c1.856-17.28 16.512-30.336 33.856-30.336h819.2c17.152 0 31.68 12.8 33.792 29.888l68.352 529.024c1.216 9.728-1.856 19.648-8.32 26.944zM226.496 691.2h571.136v-157.952h-408l-58.304 58.368c-6.4 6.336-15.104 9.984-24.128 9.984h-80.704v89.6zM874.496 23.552h-724.352l-56.448 490.496h191.424l52.544-52.608c10.368-10.176 23.744-15.616 37.76-15.616h553.984l-54.912-422.272zM294.464 870.4h435.072v-89.6h-435.072v89.6z" />
<glyph unicode="&#xe90f;" glyph-name="desktop" data-tags="ikone1-100 copy-16" d="M986.432 871.104h-948.8c-20.864 0-37.632-16.896-37.632-37.632v-589.312c0-20.864 16.768-37.76 37.632-37.76h345.856v-89.6h-193.792v-91.008h644.224v91.008h-193.792v89.6h346.24c20.736 0 37.568 16.896 37.568 37.76v589.312c0.064 20.736-16.768 37.632-37.504 37.632zM934.4 293.696h-844.8v487.808h844.8v-487.808z" />
<glyph unicode="&#xe910;" glyph-name="17" data-tags="ikone1-100 copy-17" d="M179.2 961.728h133.056v-93.12h-133.056v93.12zM711.36 961.728h133.056v-93.12h-133.056v93.12zM445.248 961.728h133.056v-93.12h-133.056v93.12zM179.2 29.12h133.056v-93.12h-133.056v93.12zM711.36 29.12h133.056v-93.12h-133.056v93.12zM445.248 29.12h133.056v-93.12h-133.056v93.12zM755.2 691.2v-486.4h-486.4v486.4h486.4zM844.8 780.8h-665.6v-665.6h665.6v665.6z" />
<glyph unicode="&#xe911;" glyph-name="folder" data-tags="ikone1-100 copy-18" d="M1014.912 611.84c-6.912 7.744-16.768 12.16-27.2 12.16h-217.856l0.064 80.128c1.28 10.368-1.92 20.864-8.832 28.608-6.848 7.744-16.768 12.096-27.2 12.096h-290.304l-110.912 111.040c-6.784 6.72-16 10.624-25.6 10.624h-270.784c-10.368 0-20.16-4.352-27.072-12.096-6.848-7.68-10.112-17.92-9.024-28.16l3.776-768.384c1.92-18.368 17.472-32.256 35.904-32.256h764.16c18.24 0 26.752 11.968 35.904 31.744l183.808 525.888c1.28 10.368-1.984 20.864-8.832 28.608zM679.232 115.2h-589.632v661.696h195.456l121.344-121.6 272.96-0.576-0.128-539.52zM768.896 115.2v419.2h142.784l-142.784-419.2z" />
<glyph unicode="&#xe912;" glyph-name="add" data-tags="ikone1-100 copy-19" d="M755.2-64v268.48h268.8v89.6h-268.8v186.304h-89.6v-186.304h-179.2v-89.6h179.2v-268.48zM755.2 294.080v268.8h-89.6v-268.8zM665.6 294.080h-268.8v-89.6h268.8zM0 960v-934.4h576v89.6h-486.4v537.6h755.2v-293.184h89.6v600.384h-934.4zM89.6 742.4v128h755.2v-128h-755.2z" />
<glyph unicode="&#xe913;" glyph-name="WP" data-tags="ikone1-100 copy-20" d="M512 960c-282.304 0-512-229.696-512-512s229.696-512 512-512c282.304 0 512 229.696 512 512s-229.696 512-512 512zM866.368 171.776c-97.216-115.776-214.784-173.696-352.576-173.696h-5.184c-108.928 0-207.872 38.080-297.088 114.688-100.672 94.912-151.104 206.656-151.104 335.232 0 101.888 32.448 195.136 97.344 279.68 96.192 114.56 213.632 171.904 352.64 171.904 120.384 0 227.008-43.968 319.616-132.032 88-92.672 132.032-198.016 132.032-316.096v-5.248c-0.128-99.52-32-191.104-95.68-274.432zM155.008 607.424c-22.144-54.208-33.28-106.88-33.28-157.696 0-56.576 12.8-113.536 38.208-171.2 44.352-84.032 104.64-143.872 181.056-179.328h1.6l-184.32 508.224h-3.264zM732.928 303.552c27.712 78.528 41.472 132.224 41.472 161.088 0 34.24-7.744 66.432-23.232 96.192-31.104 46.528-46.528 80.896-46.528 102.976v14.976c12.16 37.696 33.728 56.576 64.704 56.576l5.056-1.792v1.792c-76.416 68.608-163.904 102.848-262.4 102.848-90.752 0-173.312-29.312-247.36-88-40.96-37.696-67.008-66.304-78.016-86.336v-3.328h6.656l126.080 4.992c7.808-3.328 11.584-8.32 11.584-14.976v-4.992c0-8.768-18.816-13.248-56.384-13.248h-1.6v-1.664l141.12-421.76h1.664l84.672 254.016-59.776 167.744-8.384 1.664c-32 0-48.128 6.080-48.128 18.24h1.664c0 6.656 2.752 11.648 8.192 14.976l109.696-4.992 107.968 4.992c5.696-1.088 9.472-5.568 11.648-13.312v-4.992c0-9.92-19.328-14.912-57.984-14.912h-1.792l99.584-295.552c26.688-83.008 41.024-124.544 43.2-124.544l26.624 91.328zM516.992 416.448l-116.288-340.416c34.304-11.136 70.976-16.576 109.632-16.576 43.136 0 86.336 7.104 129.6 21.696h1.664l-78.080 210.752c-28.8 83.008-44.224 124.544-46.528 124.544zM850.688 635.584l3.328-39.808c0-24.32-3.776-52.544-11.584-84.672l-136.192-396.864v-1.664h1.728c18.688 11.008 38.72 25.472 59.712 43.2 88.64 81.792 132.928 179.328 132.928 292.224 0 63.104-15.552 125.696-46.528 187.584h-3.392z" />
<glyph unicode="&#xe914;" glyph-name="pipet" data-tags="ikone1-100 copy-21" d="M973.632 911.232c-65.024 65.024-178.304 65.024-243.328 0-4.096-4.032-7.68-8.512-12.096-14.656-2.176-1.984-4.16-4.032-5.952-6.4-79.104-109.696-143.36-124.224-279.616-150.72-19.52-4.352-37.12-14.144-51.2-28.16-41.088-41.152-41.088-108.032 0-148.864l20.096-20.096-365.888-367.616c-46.336-46.272-44.608-102.144-11.584-155.648-3.072-1.728-6.336-3.264-8.96-5.888-17.472-17.6-17.472-46.4 0-64.128 8.448-8.448 19.904-13.056 31.872-13.056 12.032 0 23.424 4.608 32 13.12 4.288 4.352 7.424 9.344 9.536 14.656 16.576-6.848 34.624-10.368 53.12-10.368 37.056 0 71.872 14.272 98.048 40.512l357.824 352.32 20.096-20.096c19.904-19.904 46.336-30.848 74.432-30.848s54.528 11.008 74.432 30.848c14.208 14.272 23.936 32.128 28.864 54.464 25.536 132.992 47.424 190.080 157.248 269.44 2.24 1.6 4.224 3.52 6.080 5.632 5.12 3.648 10.304 7.616 14.912 12.224 67.2 67.072 67.2 176.192 0.064 243.328zM185.408 48.128c-23.296-23.36-64.128-23.36-87.424 0-24.128 24.128-24.192 63.488 0 87.616l357.824 352.32 87.488-87.616-357.888-352.32zM919.552 722.24c-2.56-2.368-5.504-4.224-12.544-9.088-2.368-1.856-4.608-4.032-6.592-6.144-121.728-90.88-151.616-162.56-180.544-312.896-1.216-5.12-3.776-9.856-7.616-13.76-10.688-10.752-29.504-10.88-40.192 0l-236.352 236.352c-11.072 11.136-11.072 29.248 0.064 40.256 4.8 4.864 10.176 6.72 14.592 7.744 150.912 29.248 230.848 53.312 321.536 176.96 2.56 2.24 4.864 4.864 6.656 7.488 1.92 2.624 3.776 5.504 6.080 7.872 35.904 35.904 98.816 35.904 134.72 0 37.184-37.184 37.184-97.664 0.192-134.784z" />
<glyph unicode="&#xe915;" glyph-name="bin" data-tags="ikone1-100 copy-22" d="M977.152 780.8h-236.224l4.16 136.512c0 23.68-19.136 42.688-42.752 42.688h-380.608c-23.552 0-42.688-19.008-42.688-42.688l3.584-136.512h-236.352c-27.2 0-46.272-19.008-46.272-42.688v-183.488c0-23.488 19.072-42.624 42.688-42.624h46.336v-533.312c0-23.616 19.2-42.688 42.752-42.688h760.064c23.552 0 42.624 19.008 42.624 42.688v533.312h46.848c23.68 0 42.688 19.136 42.688 42.688v183.424c0 23.68-19.008 42.688-46.848 42.688zM364.48 870.4h295.104v-89.6h-295.104v89.6zM841.984 25.6h-662.784v486.4h90.176v-396.8h90.176v396.8h107.328v-396.8h90.176v396.8h104.512v-396.8h90.176v396.8h90.176v-486.4zM934.4 601.6h-845.376v89.6h845.376v-89.6z" />
<glyph unicode="&#xe916;" glyph-name="window" data-tags="ikone1-100 copy-23" d="M1024 960h-809.664v-281.472h-214.336v-742.528h742.72v214.208h281.28v809.792zM635.904 43.008h-528.896v529.152h528.896v-529.152zM917.248 257.024h-174.528v421.504h-421.632v174.656h596.16v-596.16z" />
<glyph unicode="&#xe917;" glyph-name="24" data-tags="ikone1-100 copy-24" d="M0 960h809.664v-281.472h214.336v-742.528h-742.72v214.208h-281.28v809.792zM388.096 43.008h528.896v529.152h-528.896v-529.152zM106.752 257.024h174.528v421.504h421.632v174.656h-596.16v-596.16z" />
<glyph unicode="&#xe918;" glyph-name="25" data-tags="ikone1-100 copy-25" horiz-adv-x="1280" d="M268.8-64h-268.8v1024h268.8v-1024zM89.6 25.6h89.6v844.8h-89.6v-844.8zM1280-64h-268.8v1024h268.8v-1024zM1100.8 25.6h89.6v844.8h-89.6v-844.8zM358.4 960v-1024h576v1024h-576zM844.8 870.4v-377.6h-396.8v377.6h396.8zM448 25.6v377.6h396.8v-377.6h-396.8z" />
<glyph unicode="&#xe919;" glyph-name="touch" data-tags="ikone1-100 copy-26" d="M803.328 459.584h-155.776v137.728c0 141.568-84.928 162.688-135.552 162.688-89.728 0-150.016-65.408-150.016-162.688v-241.408l-36.48 37.12c-39.936 55.552-122.944 71.040-180.416 32.832-29.312-19.584-49.344-49.408-56.256-83.968-6.912-34.624 0-69.824 21.184-101.376 0 0 299.584-304.512 365.824-304.512h327.552c74.112 0 134.4 60.352 134.4 134.464v254.656c0 74.176-60.352 134.464-134.464 134.464zM848.192 70.464c0-24.704-20.032-44.864-44.8-44.864h-316.032c-48 24.64-192.256 155.136-306.368 270.528-4.928 9.28-6.336 18.432-4.288 28.16 2.24 11.264 8.512 20.608 18.112 27.008 7.424 4.992 15.936 6.016 21.76 6.016 14.72 0 28.864-6.528 36.16-16.576l3.968-5.632 194.88-198.144v460.352c0 33.344 10.432 73.088 60.352 73.088 21.568 0 45.952 0 45.952-73.088v-227.328h245.44c24.768 0 44.8-20.096 44.8-44.864v-254.656zM573.632 889.984c0-38.669-31.347-70.016-70.016-70.016s-70.016 31.347-70.016 70.016c0 38.669 31.347 70.016 70.016 70.016s70.016-31.347 70.016-70.016zM835.456 628.096c0-38.669-31.347-70.016-70.016-70.016s-70.016 31.347-70.016 70.016c0 38.669 31.347 70.016 70.016 70.016s70.016-31.347 70.016-70.016zM311.808 628.096c0-38.669-31.347-70.016-70.016-70.016s-70.016 31.347-70.016 70.016c0 38.669 31.347 70.016 70.016 70.016s70.016-31.347 70.016-70.016zM388.544 813.248c0-38.669-31.347-70.016-70.016-70.016s-70.016 31.347-70.016 70.016c0 38.669 31.347 70.016 70.016 70.016s70.016-31.347 70.016-70.016zM758.72 813.248c0-38.633-31.319-69.952-69.952-69.952s-69.952 31.319-69.952 69.952c0 38.633 31.319 69.952 69.952 69.952s69.952-31.319 69.952-69.952z" />
<glyph unicode="&#xe91a;" glyph-name="27" data-tags="ikone1-100 copy-27" d="M0 960v-1024h1024v1024h-1024zM87.040 870.4h849.92v-91.648h-849.92v91.648zM87.040 25.6v665.6h849.92v-665.6h-849.92zM892.032 370.944c-0.256 1.408-0.96 2.688-1.472 4.032-0.704 1.728-1.216 3.52-2.304 5.12-0.128 0.192-0.128 0.512-0.32 0.704-6.144 8.704-152.704 213.76-375.936 213.76-223.168 0-369.856-204.992-376-213.76-0.064-0.256-0.064-0.576-0.32-0.768-1.024-1.6-1.536-3.392-2.176-5.12-0.512-1.344-1.28-2.624-1.536-4.032-0.32-1.6-0.128-3.2-0.128-4.8s-0.256-3.2 0.128-4.8c0.256-1.408 1.024-2.688 1.536-4.032 0.64-1.728 1.216-3.52 2.176-5.12 0.256-0.128 0.256-0.448 0.32-0.64 6.144-8.704 152.832-213.76 376-213.76 223.232 0 369.792 204.992 375.936 213.76 0.192 0.192 0.192 0.512 0.32 0.704 1.088 1.6 1.6 3.392 2.304 5.12 0.512 1.344 1.216 2.624 1.472 4.032 0.32 1.6 0.128 3.2 0.128 4.8-0.064 1.6 0.192 3.2-0.128 4.8zM512.064 227.328c-125.376 0-224.448 87.232-271.936 138.752 47.424 51.52 146.432 138.816 271.936 138.816 125.376 0 224.384-87.296 271.808-138.752-47.488-51.52-146.496-138.816-271.808-138.816zM605.952 366.144c0-51.888-42.064-93.952-93.952-93.952s-93.952 42.064-93.952 93.952c0 51.888 42.064 93.952 93.952 93.952s93.952-42.064 93.952-93.952z" />
<glyph unicode="&#xe91b;" glyph-name="cup" data-tags="ikone1-100 copy-28" d="M4.48 115.968h754.56v-89.6h-754.56v89.6zM845.888 868.864h-86.848v0.768h-754.56v-359.808c0-163.584 133.12-296.704 296.704-296.704h210.432c163.584 0 247.424 133.12 247.424 296.704v2.816h86.848c98.176 0 178.112 79.936 178.112 178.176 0 98.176-79.936 178.048-178.112 178.048zM669.376 509.824c0-114.176-92.864-207.040-207.040-207.040h-161.152c-114.176 0-207.040 92.864-207.040 207.040v270.144h575.296v-270.144zM845.888 602.24h-86.848v177.024h86.848c48.832 0 88.512-39.68 88.512-88.448 0-48.832-39.744-88.576-88.512-88.576z" />
<glyph unicode="&#xe91c;" glyph-name="html" data-tags="ikone1-100 copy-29" d="M118.336 188.16h-53.248v175.808h-65.088v-427.968h65.088v196.352h53.248v-196.352h65.088v427.968h-65.088zM261.056 308.096h60.928v-372.096h65.088v372.096h63.808v55.872h-189.824zM651.52 150.976l-46.272 212.992h-77.12v-427.968h54.72v302.272l54.528-302.272h28.096l54.656 302.272v-302.272h56v427.968h-78.528zM931.52-8.064v372.032h-65.152v-427.968h157.632v55.936zM324.48 960l-324.48-301.76v-237.888h226.496l330.688 307.712-232.704 231.936zM67.52 487.872v91.52l91.52-91.52h-91.52zM89.856 652.608l234.752 211.84 137.024-136.384-235.008-212.16-136.768 136.704z" />
<glyph unicode="&#xe91d;" glyph-name="css" data-tags="ikone1-100 copy-30" d="M335.616 222.528c0.704 16.768 1.408 24.896 1.408 33.024 0 72.384-30.592 108.352-91.776 108.352-59.136 0-89.088-33.6-89.088-99.584v-228.672c0-66.048 29.952-99.648 89.088-99.648 61.184 0 91.776 36.672 91.776 110.208 0 9.984 0 18.752-1.408 43.648h-63.168c0.64-20.608 1.344-32.448 1.344-42.944 0-44.352-6.144-56.704-28.544-56.704-20.352 0-25.792 9.344-25.792 45.504v228.608c0 36.096 5.44 45.504 25.792 45.504 22.4 0 28.544-12.48 28.544-58.56 0-8.768 0-15.040-1.344-28.736h63.168zM526.912 182.016c-42.88 56.704-44.864 63.552-44.864 89.152 0 24.896 9.472 38.656 26.496 38.656 14.272 0 24.512-9.408 26.496-26.304 1.408-8.704 2.112-16.192 2.112-37.376l61.824 5.696c0 32.448-0.704 36.672-4.032 51.776-8.192 37.248-39.488 60.288-82.304 60.288-57.152 0-93.184-34.88-93.184-89.6 0-36.8 12.288-66.112 51.776-118.976l31.232-42.368c28.608-39.232 38.72-54.912 38.72-81.6 0-26.752-10.112-41.088-28.544-41.088-24.512 0-32.64 13.696-32.64 56.704v18.048l-62.528-2.56c-0.704-9.984-0.704-15.488-0.704-22.464 0-36.096 4.672-53.632 19.648-72.256 17.728-21.76 41.472-31.744 75.52-31.744 59.136 0 92.48 31.104 92.48 86.592 0 35.456-16.32 77.824-45.568 117.056l-31.936 42.368zM822.208 139.648l-31.872 42.368c-42.752 56.704-44.864 63.552-44.864 89.152 0 24.896 9.536 38.656 26.496 38.656 14.272 0 24.512-9.408 26.496-26.304 1.408-8.704 2.112-16.192 2.112-37.376l61.824 5.696c0 32.448-0.704 36.672-4.032 51.776-8.192 37.248-39.424 60.288-82.304 60.288-57.088 0-93.184-34.88-93.184-89.6 0-36.8 12.288-66.112 51.776-118.976l31.296-42.368c28.608-39.232 38.72-54.912 38.72-81.6 0-26.752-10.112-41.088-28.544-41.088-24.448 0-32.576 13.696-32.576 56.704v18.048l-62.592-2.56c-0.704-9.984-0.704-15.488-0.704-22.464 0-36.096 4.8-53.632 19.712-72.256 17.664-21.76 41.408-31.744 75.328-31.744 59.136 0 92.48 31.104 92.48 86.592 0.064 35.392-16.192 77.824-45.568 117.056zM483.52 960l-324.48-301.76v-237.888h226.496l330.688 307.712-232.704 231.936zM226.496 487.872v91.52l91.52-91.52h-91.52zM248.896 652.608l234.752 211.84 137.024-136.384-235.072-212.16-136.704 136.704z" />
<glyph unicode="&#xe91e;" glyph-name="hide" data-tags="ikone1-100 copy-31" d="M1021.76 459.904c-0.96 2.304-1.6 4.672-3.072 6.784-0.128 0.256-0.128 0.64-0.384 0.96-5.248 7.424-86.144 120.384-220.8 202.56l226.496 226.496-63.36 63.296-246.72-246.72c-60.224 25.408-127.872 42.24-201.92 42.24-300.608 0-498.112-276.16-506.368-287.872-0.128-0.256-0.128-0.64-0.384-0.96-1.344-2.112-2.048-4.544-2.944-6.784-0.64-1.92-1.728-3.648-2.048-5.504-0.448-2.112-0.128-4.288-0.128-6.4 0-2.24-0.32-4.416 0.128-6.528 0.32-1.856 1.408-3.584 2.048-5.376 0.896-2.368 1.6-4.8 2.944-6.912 0.256-0.256 0.256-0.64 0.384-0.96 5.248-7.424 86.208-120.32 220.864-202.432l-226.496-226.432 63.296-63.36 246.72 246.72c60.224-25.408 127.936-42.24 201.984-42.24 300.608 0 497.984 276.032 506.24 287.744 0.256 0.256 0.256 0.64 0.384 0.96 1.472 2.112 2.112 4.544 3.072 6.912 0.64 1.728 1.664 3.456 1.984 5.376 0.512 2.112 0.256 4.288 0.256 6.528 0 2.112 0.256 4.288-0.128 6.4-0.384 1.856-1.344 3.584-2.048 5.504zM104.448 447.936c57.856 67.392 209.408 217.984 407.616 217.984 46.848 0 90.88-8.896 131.904-22.656l-55.552-55.488c-22.784 12.48-48.576 20.224-76.416 20.224-88.384 0-160-71.616-160-160 0-27.84 7.744-53.632 20.224-76.416l-79.552-79.552c-88.128 49.536-154.432 116.608-188.224 155.904zM512.064 230.080c-46.912 0-90.944 8.896-132.032 22.656l55.552 55.552c22.784-12.544 48.576-20.288 76.416-20.288 88.384 0 160 71.616 160 160 0 27.84-7.744 53.632-20.224 76.416l79.488 79.488c88.192-49.536 154.496-116.672 188.224-155.968-57.856-67.392-209.28-217.856-407.424-217.856z" />
<glyph unicode="&#xe91f;" glyph-name="see" data-tags="ikone1-100 copy-32" d="M672 448c0-88.366-71.634-160-160-160s-160 71.634-160 160c0 88.366 71.634 160 160 160s160-71.634 160-160zM1023.808 454.4c-0.32 1.856-1.344 3.584-1.984 5.504-0.96 2.304-1.6 4.672-3.072 6.784-0.128 0.256-0.128 0.64-0.384 0.96-8.256 11.712-205.696 287.872-506.24 287.872s-498.176-276.16-506.496-287.872c-0.128-0.256-0.128-0.64-0.384-0.96-1.344-2.112-2.048-4.544-2.944-6.784-0.64-1.92-1.728-3.648-2.048-5.504-0.448-2.112-0.128-4.288-0.128-6.4 0-2.24-0.32-4.416 0.128-6.528 0.32-1.856 1.408-3.584 2.048-5.376 0.896-2.368 1.6-4.8 2.944-6.912 0.256-0.256 0.256-0.64 0.384-0.96 8.256-11.776 205.824-287.744 506.368-287.744s497.984 276.032 506.24 287.744c0.256 0.256 0.256 0.64 0.384 0.96 1.472 2.112 2.112 4.544 3.072 6.912 0.64 1.728 1.664 3.456 1.984 5.376 0.512 2.112 0.256 4.288 0.256 6.528 0 2.112 0.256 4.288-0.128 6.4zM512.064 230.080c-198.272 0-349.76 150.528-407.616 217.856 57.856 67.392 209.408 217.984 407.616 217.984 198.080 0 349.568-150.592 407.424-217.984-57.856-67.392-209.28-217.856-407.424-217.856z" />
<glyph unicode="&#xe920;" glyph-name="right-arrow" data-tags="ikone1-100 copy-33" d="M1024 448l-375.232 375.168v-327.744h-648.768v-89.6h648.768v-332.992z" />
<glyph unicode="&#xe921;" glyph-name="check" data-tags="ikone1-100 copy-34" d="M356.48 94.336l-206.4 307.84 74.432 49.856 140.48-209.536 437.568 514.112 68.288-58.048z" />
<glyph unicode="&#xe922;" glyph-name="minus" data-tags="ikone1-100 copy-35" d="M213.312 492.8h597.376v-89.6h-597.376v89.6z" />
<glyph unicode="&#xe923;" glyph-name="Xs" data-tags="ikone1-100 copy-36" d="M768 960h-512c-17.664 0-32-14.336-32-32v-960c0-17.664 14.336-32 32-32h512c17.664 0 32 14.336 32 32v960c0 17.664-14.336 32-32 32zM710.4 115.2h-396.8v755.2h396.8v-755.2z" />
<glyph unicode="&#xe924;" glyph-name="Sm" data-tags="ikone1-100 copy-37" d="M0 704v-512c0-17.664 14.336-32 32-32h960c17.664 0 32 14.336 32 32v512c0 17.664-14.336 32-32 32h-960c-17.664 0-32-14.336-32-32zM844.8 646.4v-396.8h-755.2v396.8h755.2z" />
<glyph unicode="&#xe925;" glyph-name="Md" data-tags="ikone1-100 copy-38" d="M857.6 960h-691.2c-17.728 0-32-14.336-32-32v-960c0-17.664 14.272-32 32-32h691.2c17.664 0 32 14.336 32 32v960c0 17.664-14.336 32-32 32zM800 68.992h-576v801.408h576v-801.408z" />
<glyph unicode="&#xe926;" glyph-name="Lg" data-tags="ikone1-100 copy-39" d="M986.432 871.104h-948.8c-20.864 0-37.632-16.896-37.632-37.632v-589.312c0-20.864 16.768-37.76 37.632-37.76h345.856v-89.6h-193.792v-91.008h644.224v91.008h-193.792v89.6h346.24c20.736 0 37.568 16.896 37.568 37.76v589.312c0.064 20.736-16.768 37.632-37.504 37.632zM934.4 293.696h-844.8v487.808h844.8v-487.808z" />
<glyph unicode="&#xe927;" glyph-name="same" data-tags="ikone1-100 copy-40" d="M211.328 498.88v132.608h601.28v-132.608h-601.28zM211.328 264.512v132.608h601.28v-132.608h-601.28z" />
<glyph unicode="&#xe928;" glyph-name="round_lu" data-tags="ikone1-100 copy-41" d="M89.6-64h-89.6v308.16c0 394.688 335.232 715.84 747.328 715.84h276.672v-89.6h-276.672c-362.688 0-657.728-280.96-657.728-626.24v-308.16z" />
<glyph unicode="&#xe929;" glyph-name="round_ru" data-tags="ikone1-100 copy-42" d="M0 870.4v89.6h308.16c394.688 0 715.84-335.232 715.84-747.328v-276.672h-89.6v276.672c0 362.688-280.96 657.728-626.24 657.728h-308.16z" />
<glyph unicode="&#xe92a;" glyph-name="round-ld" data-tags="ikone1-100 copy-43" d="M89.6 960h-89.6v-308.16c0-394.688 335.232-715.84 747.328-715.84h276.672v89.6h-276.672c-362.688 0-657.728 280.96-657.728 626.24v308.16z" />
<glyph unicode="&#xe92b;" glyph-name="round_rd" data-tags="ikone1-100 copy-44" d="M0 25.6v-89.6h308.16c394.688 0 715.84 335.232 715.84 747.328v276.672h-89.6v-276.672c0-362.688-280.96-657.728-626.24-657.728h-308.16z" />
<glyph unicode="&#xe92c;" glyph-name="refresh" data-tags="ikone1-100 copy-45" d="M935.616 456.896v-8.896c0-233.6-190.016-423.68-423.616-423.68s-423.68 190.016-423.68 423.68c0 233.6 190.016 423.616 423.68 423.616 103.744 0 202.432-37.888 280.192-107.2h-69.632c-24.384 0-44.16-19.84-44.16-44.16s19.84-44.16 44.16-44.16h239.744v239.744c0 24.384-19.84 44.16-44.16 44.16s-44.16-19.84-44.16-44.16v-106.496c-95.872 96-226.56 150.656-361.984 150.656-282.304 0-512-229.696-512-512 0-282.368 229.696-512 512-512s512 229.696 512 512v8.896h-88.384z" />
<glyph unicode="&#xe92d;" glyph-name="settings" data-tags="settings" d="M475.712 864v96h-296.512v-96h-179.2v-89.6h179.2v-96h296.512v96h548.288v89.6h-548.288zM386.112 768h-117.312v102.4h117.312v-102.4zM475.712 217.6h-296.512v-96h-179.2v-89.6h179.2v-96h296.512v96h548.288v89.6h-548.288v96zM386.112 25.6h-117.312v102.4h117.312v-102.4zM844.8 588.8h-296.512v-96h-548.288v-89.6h548.288v-96h296.512v96h179.2v89.6h-179.2v96zM755.2 396.8h-117.312v102.4h117.312v-102.4z" />
<glyph unicode="&#xe92e;" glyph-name="frame-type" data-tags="ikone1-100 copy-47" horiz-adv-x="1536" d="M1536 371.2h-102.4v153.6h102.4v-153.6zM1331.2 371.2h-102.4v153.6h102.4v-153.6zM1126.4 371.2h-102.4v153.6h102.4v-153.6zM921.6 371.2h-102.4v153.6h102.4v-153.6zM716.8 371.2h-102.4v153.6h102.4v-153.6zM512 371.2h-102.4v153.6h102.4v-153.6zM307.2 371.2h-102.4v153.6h102.4v-153.6zM102.4 371.2h-102.4v153.6h102.4v-153.6z" />
<glyph unicode="&#xe92f;" glyph-name="family" data-tags="ikone1-100 copy-48" d="M393.28 336.704c-31.616 0-30.4 0-41.344-32.832l-49.856-145.856c-24.32-71.744-19.456-74.176 25.536-81.536l35.264-6.080c8.512-8.512 7.296-30.4-2.432-35.264-38.912 2.432-79.040 2.432-128.896 3.648-40.128 0-77.824-1.216-120.384-3.648-8.512 6.080-9.728 24.32-1.216 35.264l36.48 6.080c35.264 6.144 48.64 15.808 66.816 55.936 14.592 31.616 34.048 82.688 59.584 148.288l166.528 432.896c14.592 38.848 26.752 68.032 23.104 88.768 42.624 8.576 82.752 58.432 85.184 58.432 9.728 0 15.808-3.712 20.672-9.728 19.456-54.656 35.264-111.872 54.72-166.592l175.040-509.44c27.968-81.472 34.048-88.768 96.064-100.928l18.24-3.648c9.728-8.512 9.728-29.184 1.216-35.264-49.856 2.432-94.784 3.648-158.016 3.648-52.288 0-105.792-2.432-148.352-3.648-9.728 6.080-10.944 27.968-3.648 35.264l26.752 3.648c43.776 6.144 49.856 13.376 31.616 64.448l-57.152 165.376c-10.944 32.768-15.808 32.768-49.856 32.768h-161.664zM539.136 391.488c34.048 0 38.912 2.432 29.184 31.552l-51.072 145.92c-21.888 64.448-27.968 87.488-34.048 96.064h-2.432c-4.864-8.576-15.808-38.912-36.48-96.064l-51.008-142.208c-12.16-35.264-9.728-35.264 19.456-35.264h126.4z" />
<glyph unicode="&#xe930;" glyph-name="weight" data-tags="ikone1-100 copy-49" d="M371.968 164.736l-12.48 86.016h-3.968c-27.328-35.008-55.424-59.776-84.224-74.24-28.864-14.528-62.912-21.76-102.272-21.76-53.376 0-94.848 13.696-124.48 41.024-29.76 27.328-44.544 65.152-44.544 113.472 0 52.992 22.080 94.208 66.24 123.52s108.096 44.8 191.744 46.528l103.488 3.008v35.968c0 51.712-10.496 90.688-31.488 116.992s-54.848 39.488-101.504 39.488c-50.368 0-102.528-14.016-156.48-41.984l-18.496 43.008c59.648 27.968 118.656 41.984 176.96 41.984 59.648 0 104.256-15.488 133.76-46.528 29.504-30.976 44.224-79.296 44.224-145.024v-361.472h-36.48zM171.968 199.744c57.984 0 103.744 16.576 137.28 49.728 33.472 33.216 50.24 79.232 50.24 138.24v53.568l-94.976-4.032c-76.352-3.712-130.752-15.552-163.264-35.712-32.512-20.224-48.768-51.584-48.768-94.272 0-33.984 10.432-60.416 31.232-79.232 20.864-18.816 50.304-28.288 88.256-28.288zM888.512 164.736l-37.504 75.008h-4.032c-26.368-32.704-53.184-54.976-80.512-67.008s-62.656-17.984-105.984-17.984c-53.312 0-95.36 16-126.016 48-30.72 32-46.016 76.992-46.016 134.976 0 60.288 20.992 105.216 62.976 134.72s102.848 46.080 182.528 49.728l94.464 3.008v8.064c0 46.656-22.976 70.016-68.992 70.016-41.344 0-93.824-14.016-157.504-41.984l-56.448 128.96c65.984 33.984 149.312 51.008 249.984 51.008 72.64 0 128.896-17.984 168.768-54.016 39.808-35.968 59.776-86.272 59.776-150.976v-371.52h-135.488zM743.488 292.736c23.68 0 43.904 7.488 60.736 22.528 16.832 14.976 25.28 34.496 25.28 58.496v44.032l-44.992-1.984c-64.384-2.368-96.512-26.048-96.512-71.040 0-34.688 18.496-52.032 55.488-52.032z" />
<glyph unicode="&#xe931;" glyph-name="font-size" data-tags="ikone1-100 copy-50" d="M104.64 919.296h81.408v-942.528h-81.408v942.528zM0 960h290.688v-81.408h-290.688v81.408zM0 17.408h290.688v-81.408h-290.688v81.408zM940.672 77.248l-22.4 105.728h-5.376c-36.992-46.528-73.92-78.016-110.72-94.528s-82.816-24.704-137.984-24.704c-73.6 0-131.392 18.944-173.184 56.96-41.792 37.952-62.656 91.968-62.656 161.984 0 150.016 120 228.608 359.872 235.904l126.144 4.032v46.080c0 58.24-12.608 101.248-37.632 129.152-25.152 27.712-65.216 41.6-120.32 41.6-61.952 0-131.968-18.944-210.112-56.96l-34.752 86.080c36.736 19.84 76.736 35.456 120.32 46.784s87.36 16.96 131.2 16.96c88.512 0 154.176-19.648 196.864-59.008 42.752-39.296 64.064-102.336 64.064-189.12v-506.944h-83.328zM686.528 156.544c70.016 0 124.992 19.136 164.928 57.6 40 38.464 60.096 92.16 60.096 161.28v67.136l-112.64-4.736c-89.472-3.2-153.92-17.024-193.408-41.664s-59.328-62.912-59.328-114.816c0-40.64 12.288-71.744 36.928-92.928 24.64-21.248 59.136-31.872 103.424-31.872z" />
<glyph unicode="&#xe932;" glyph-name="spacing" data-tags="ikone1-100 copy-51" d="M934.4 259.968v-115.136h-844.8v115.136h-89.6v-320h89.6v115.2h844.8v-115.2h89.6v320zM375.104 323.904l-13.44 63.36h-3.264c-22.144-27.968-44.288-46.848-66.368-56.768-22.080-9.856-49.6-14.72-82.688-14.72-44.096 0-78.72 11.392-103.808 34.112-25.024 22.72-37.568 55.104-37.568 97.024 0 89.92 71.936 137.088 215.68 141.376l75.648 2.432v27.648c0 34.944-7.552 60.736-22.592 77.376-15.104 16.64-39.104 25.024-72.128 25.024-37.12 0-79.104-11.392-125.952-34.112l-20.672 51.584c21.952 11.904 45.952 21.248 72.128 28.032 26.112 6.72 52.352 10.112 78.656 10.112 53.056 0 92.416-11.776 118.016-35.328s38.4-61.312 38.4-113.28v-303.872h-50.048zM222.784 371.392c41.92 0 74.88 11.52 98.816 34.496 24 23.040 36.032 55.232 36.032 96.768v40.192l-67.456-2.88c-53.632-1.92-92.224-10.24-115.968-25.024-23.68-14.72-35.584-37.76-35.584-68.864 0-24.384 7.36-42.944 22.144-55.616 14.784-12.736 35.456-19.072 62.016-19.072zM771.2 776.384c58.496 0 103.936-19.904 136.32-59.84 32.384-40 48.512-96.512 48.512-169.6 0-73.152-16.32-129.92-48.96-170.368-32.64-40.512-77.952-60.736-135.872-60.736-28.992 0-55.424 5.312-79.424 16-23.936 10.752-44.096 27.136-60.288 49.344h-4.928l-14.208-57.28h-48.384v632.064h67.456v-153.6c0-34.368-1.088-65.28-3.264-92.608h3.264c31.424 44.416 78.016 66.624 139.776 66.624zM761.408 719.936c-46.080 0-79.168-13.184-99.584-39.552-20.288-26.496-30.464-70.912-30.464-133.504s10.432-107.328 31.296-134.272c20.8-27.008 54.272-40.448 100.288-40.448 41.408 0 72.32 15.040 92.608 45.312 20.288 30.208 30.464 73.6 30.464 130.176 0 57.92-10.112 101.184-30.464 129.536-20.16 28.544-51.648 42.752-94.144 42.752z" />
<glyph unicode="&#xe933;" glyph-name="style_normal" data-tags="ikone1-100 copy-52" d="M718.464 126.912l-79.616 203.392h-256.384l-78.72-203.456h-75.264l252.928 642.304h62.528l251.584-642.24h-77.056zM615.68 397.248l-74.368 198.208c-9.664 25.024-19.584 55.808-29.76 92.288-6.464-27.968-15.616-58.816-27.52-92.288l-75.264-198.208h206.912z" />
<glyph unicode="&#xe934;" glyph-name="style_italic" data-tags="ikone1-100 copy-53" d="M665.856 331.648h-217.088l-107.264-203.456h-82.752l349.76 639.616h76.16l80.512-639.616h-74.432l-24.896 203.456zM657.984 399.872l-15.36 130.816c-6.976 52.16-11.2 103.232-12.672 153.152-10.816-25.664-22.592-51.2-35.2-76.544-12.736-25.408-49.152-94.528-109.248-207.36h172.48z" />
<glyph unicode="&#xe935;" glyph-name="style_bolditalic" data-tags="ikone1-100 copy-54" d="M640.64 248.064h-196.032l-54.656-119.872h-177.664l325.504 639.616h220.096l53.824-639.616h-166.656l-4.416 119.872zM507.2 384.576h128.192l-7.488 185.472-0.832 37.632c0 21.888 0.576 40.96 1.728 57.344-6.976-25.152-15.872-49.344-26.688-72.64l-94.912-207.808z" />
<glyph unicode="&#xe936;" glyph-name="decoration-none" data-tags="ikone1-100 copy-55" d="M549.184 128.192h-74.368v573.568h-202.56v66.048h479.488v-66.048h-202.56v-573.568z" />
<glyph unicode="&#xe937;" glyph-name="decoration-under" data-tags="ikone1-100 copy-56" d="M272.256 25.6h479.488v-89.6h-479.488v89.6zM272.256 767.808v-66.048h202.56v-573.568h74.368v573.568h202.56v66.048z" />
<glyph unicode="&#xe938;" glyph-name="decoration-over" data-tags="ikone1-100 copy-57" d="M272.256 960h479.488v-89.6h-479.488v89.6zM272.256 695.488h202.56v-573.568h74.368v573.568h202.56v66.048h-479.488z" />
<glyph unicode="&#xe939;" glyph-name="decoration-through" data-tags="ikone1-100 copy-58" d="M751.744 448l-202.56 0.064v253.696h202.56v66.048h-479.488v-66.048h202.56v-253.696h-202.56v-89.6h202.56v-230.272h74.368v230.272l202.56-0.064z" />
<glyph unicode="&#xe93a;" glyph-name="Transform-none" data-tags="ikone1-100 copy-59" d="M718.464 126.912l-79.616 203.392h-256.384l-78.72-203.456h-75.264l252.864 642.304h62.592l251.584-642.24h-77.056zM615.68 397.248l-74.368 198.208c-9.664 25.024-19.584 55.808-29.76 92.288-6.464-27.968-15.616-58.752-27.584-92.288l-75.2-198.208h206.912z" />
<glyph unicode="&#xe93b;" glyph-name="Transform-sentence-case" data-tags="ikone1-100 copy-60" horiz-adv-x="1536" d="M489.984 112l-79.616 203.456h-256.384l-78.72-203.456h-75.264l252.864 642.24h62.592l251.52-642.24h-76.992zM387.2 382.4l-74.368 198.144c-9.6 25.088-19.584 55.808-29.76 92.288-6.464-27.968-15.616-58.688-27.584-92.288l-75.2-198.144h206.912zM889.92 599.36c62.976 0 111.936-21.504 146.752-64.512 34.88-43.072 52.288-103.936 52.288-182.656s-17.536-139.968-52.672-183.552c-35.2-43.584-83.904-65.344-146.368-65.344-31.168 0-59.712 5.76-85.504 17.216-25.856 11.584-47.488 29.248-65.024 53.184h-5.248l-15.296-61.696h-52.096v680.768h72.64v-165.376c0-36.992-1.216-70.272-3.52-99.776h3.52c33.856 47.872 84.032 71.744 150.528 71.744zM879.424 538.56c-49.536 0-85.312-14.208-107.2-42.688-21.888-28.352-32.832-76.288-32.832-143.68s11.264-115.584 33.664-144.64c22.464-28.992 58.496-43.52 108.032-43.52 44.608 0 77.888 16.256 99.776 48.832 21.888 32.512 32.832 79.168 32.832 140.16 0 62.464-10.944 108.928-32.832 139.584-21.824 30.656-55.616 45.952-101.44 45.952zM1407.808 103.232c-69.44 0-123.136 21.376-161.216 64.064-38.016 42.752-57.088 103.168-57.088 181.376 0 80.192 19.328 142.208 57.92 185.92 38.72 43.776 93.76 65.6 165.184 65.6 23.040 0 46.016-2.496 69.12-7.424 23.040-4.992 41.152-10.816 54.208-17.472l-22.272-61.696c-16.064 6.4-33.536 11.776-52.544 16-18.944 4.16-35.712 6.336-50.304 6.336-97.408 0-146.112-62.144-146.112-186.368 0-58.944 11.904-104.128 35.712-135.616 23.744-31.488 58.944-47.232 105.6-47.232 39.936 0 80.96 8.576 122.944 25.792v-64.32c-32-16.64-72.448-24.96-121.152-24.96z" />
<glyph unicode="&#xe93c;" glyph-name="Transform-uppercase" data-tags="ikone1-100 copy-61" horiz-adv-x="1792" d="M489.984 128l-79.616 203.392h-256.384l-78.72-203.392h-75.264l252.864 642.24h62.592l251.584-642.24h-77.056zM387.2 398.4l-74.368 198.080c-9.6 25.152-19.584 55.872-29.76 92.352-6.464-27.968-15.616-58.752-27.584-92.352l-75.2-198.080h206.912zM704 767.552h180.672c84.864 0 146.24-12.672 184.192-38.080 37.952-25.344 56.896-65.408 56.896-120.32 0-37.888-10.56-69.184-31.68-93.824-21.184-24.64-52.032-40.64-92.608-47.872v-4.416c97.152-16.576 145.728-67.648 145.728-153.152 0-57.152-19.328-101.76-57.984-133.888-38.656-32-92.672-48-162.112-48h-223.104v639.552zM778.368 493.76h122.496c52.48 0 90.24 8.192 113.28 24.704 23.104 16.448 34.56 44.224 34.56 83.328 0 35.84-12.8 61.76-38.528 77.696-25.664 15.872-66.496 23.808-122.496 23.808h-109.376v-209.536zM778.368 430.784v-239.36h133.44c51.648 0 90.496 9.984 116.608 30.016 26.048 20.032 39.104 51.264 39.104 93.888 0 39.616-13.376 68.8-40 87.488-26.752 18.624-67.328 28.032-121.856 28.032h-127.296zM1615.296 710.272c-70.336 0-125.824-23.36-166.464-70.208-40.768-46.848-61.056-110.912-61.056-192.32 0-83.712 19.648-148.352 58.816-193.984 39.232-45.696 95.168-68.48 167.808-68.48 44.608 0 95.488 8.064 152.704 24.128v-65.216c-44.288-16.64-99.008-24.896-164.032-24.896-94.208 0-166.976 28.544-218.048 85.76-51.264 57.152-76.8 138.368-76.8 243.648 0 65.92 12.288 123.712 36.928 173.248 24.704 49.6 60.224 87.808 106.752 114.624 46.592 26.88 101.312 40.256 164.288 40.256 67.072 0 125.696-12.224 175.872-36.736l-31.488-63.872c-48.512 22.656-96.896 34.048-145.28 34.048z" />
<glyph unicode="&#xe93d;" glyph-name="Transform-lowercase" data-tags="ikone1-100 copy-62" horiz-adv-x="1536" d="M330.752 112l-14.464 68.224h-3.456c-23.936-30.016-47.744-50.368-71.552-60.992-23.744-10.688-53.44-16-89.024-16-47.552 0-84.8 12.224-111.744 36.736-27.008 24.512-40.512 59.328-40.512 104.576 0 96.832 77.44 147.584 232.32 152.256l81.344 2.624v29.76c0 37.632-8.064 65.408-24.32 83.328-16.128 17.984-42.048 26.944-77.632 26.944-39.936 0-85.184-12.224-135.616-36.736l-22.272 55.552c23.616 12.864 49.472 22.848 77.696 30.144 28.16 7.296 56.32 10.944 84.608 10.944 57.152 0 99.52-12.672 127.104-38.080 27.52-25.344 41.28-66.048 41.28-122.048v-327.232h-53.76zM166.656 163.2c45.184 0 80.704 12.352 106.56 37.184 25.792 24.768 38.72 59.52 38.72 104.128v43.328l-72.64-3.072c-57.728-1.984-99.392-11.008-124.928-26.88-25.472-15.936-38.272-40.704-38.272-74.176 0-26.24 7.936-46.272 23.872-59.968 15.872-13.76 38.144-20.544 66.688-20.544zM823.744 599.36c62.976 0 111.936-21.504 146.752-64.512 34.88-43.072 52.288-103.936 52.288-182.656s-17.536-139.968-52.672-183.552c-35.2-43.584-83.904-65.344-146.368-65.344-31.168 0-59.776 5.76-85.504 17.216-25.856 11.584-47.488 29.248-65.024 53.184h-5.248l-15.296-61.696h-52.032v680.768h72.576v-165.376c0-36.992-1.152-70.272-3.456-99.776h3.456c33.856 47.872 84.032 71.744 150.528 71.744zM813.248 538.56c-49.536 0-85.312-14.208-107.2-42.688-21.888-28.352-32.832-76.288-32.832-143.68s11.264-115.584 33.664-144.64c22.4-28.992 58.496-43.52 108.096-43.52 44.608 0 77.888 16.256 99.776 48.832 21.888 32.512 32.832 79.168 32.832 140.16 0 62.464-10.944 108.928-32.832 139.584-21.824 30.656-55.68 45.952-101.504 45.952zM1407.808 103.232c-69.44 0-123.136 21.376-161.28 64.064-38.016 42.752-57.088 103.168-57.088 181.376 0 80.192 19.328 142.208 57.92 185.92 38.656 43.776 93.76 65.6 165.184 65.6 23.040 0 46.080-2.496 69.12-7.424 23.040-4.992 41.152-10.816 54.272-17.472l-22.336-61.696c-16.064 6.4-33.536 11.776-52.48 16-18.944 4.16-35.776 6.336-50.304 6.336-97.472 0-146.112-62.144-146.112-186.368 0-58.944 11.904-104.128 35.712-135.616 23.744-31.488 58.944-47.232 105.6-47.232 39.936 0 80.96 8.576 122.944 25.792v-64.32c-32-16.64-72.448-24.96-121.152-24.96z" />
<glyph unicode="&#xe93e;" glyph-name="ikone1-100-copy-63" data-tags="ikone1-100 copy-63" d="M726.528-64l-49.6 191.168h-327.040l-51.008-191.168h-298.88l328.512 1024h362.88l332.608-1024h-297.472zM620.48 353.152l-43.392 167.424c-10.112 37.184-22.4 85.312-36.864 144.384-14.464 59.008-23.936 101.376-28.608 126.976-4.096-23.744-12.288-62.848-24.384-117.248-12.224-54.4-39.168-161.6-80.96-321.536h214.208z" />
<glyph unicode="&#xe93f;" glyph-name="style_bold" data-tags="ikone1-100 copy-64" d="M646.080 132.096l-30.976 117.952h-204.48l-31.872-117.952h-186.752l205.312 631.808h226.816l207.872-631.808h-185.92zM579.776 389.44l-27.136 103.296c-6.336 22.912-14.016 52.608-23.040 89.088-9.024 36.416-14.976 62.592-17.856 78.336-2.56-14.656-7.68-38.72-15.296-72.32s-24.448-99.712-50.56-198.4h133.888z" />
<glyph unicode="&#xe940;" glyph-name="sentence-case" data-tags="ikone1-100 copy-65" d="M354.688 136.64h-170.624v491.904h-154.112v139.456h478.464v-139.456h-153.728v-491.904zM994.048 382.4c0-80.064-21.504-142.464-64.512-187.2-43.072-44.8-103.296-67.2-180.736-67.2-74.24 0-133.376 22.912-177.28 68.672-43.84 45.76-65.856 107.648-65.856 185.728 0 79.744 21.568 141.696 64.576 185.92s103.424 66.304 181.12 66.304c48.128 0 90.56-10.24 127.424-30.656s65.28-49.728 85.312-87.872c19.968-38.272 29.952-82.752 29.952-133.696zM677.12 382.4c0-42.048 5.632-74.048 16.832-96.128 11.2-22.016 30.080-33.024 56.576-33.024 26.176 0 44.672 11.008 55.424 33.024 10.816 22.016 16.192 54.080 16.192 96.128 0 41.728-5.44 73.28-16.384 94.528-10.944 21.312-29.632 31.936-56.128 31.936-25.92 0-44.544-10.56-55.744-31.744-11.136-21.12-16.768-52.736-16.768-94.72z" />
<glyph unicode="&#xe941;" glyph-name="uppercase" data-tags="ikone1-100 copy-66" d="M367.168 132.352h-170.56v491.84h-154.176v139.456h478.464v-139.456h-153.728v-491.84zM827.84 132.352h-170.56v491.84h-154.176v139.456h478.464v-139.456h-153.728v-491.84z" />
<glyph unicode="&#xe942;" glyph-name="lowercase" data-tags="ikone1-100 copy-67" d="M436.288 283.456c22.72 0 49.92 5.632 81.6 16.832v-123.072c-22.72-9.792-44.416-16.768-64.96-20.928-20.608-4.16-44.672-6.272-72.32-6.272-56.704 0-97.6 13.888-122.688 41.664-25.024 27.776-37.568 70.464-37.568 128.064v201.664h-59.136v68.672l75.136 53.12 43.584 102.784h110.592v-98.048h120.064v-126.528h-120.064v-190.464c0-31.616 15.232-47.488 45.76-47.488zM781.184 283.456c22.72 0 49.92 5.632 81.6 16.832v-123.072c-22.72-9.792-44.416-16.768-64.96-20.928-20.608-4.16-44.672-6.272-72.384-6.272-56.704 0-97.6 13.888-122.624 41.664s-37.568 70.464-37.568 128.064v201.664h-59.136v68.672l75.136 53.12 43.584 102.784h110.592v-98.048h120.064v-126.528h-120.064v-190.464c0-31.616 15.232-47.488 45.76-47.488z" />
<glyph unicode="&#xe943;" glyph-name="align-center" data-tags="ikone1-100 copy-68" d="M180.032 960h664v-89.6h-664v89.6zM0 648.512h1024v-89.6h-1024v89.6zM176 337.088h672v-89.6h-672v89.6zM0 25.6h1024v-89.6h-1024v89.6z" />
<glyph unicode="&#xe944;" glyph-name="align-left" data-tags="ikone1-100 copy-69" d="M0 960h664v-89.6h-664v89.6zM0 648.512h1024v-89.6h-1024v89.6zM0 337.088h672v-89.6h-672v89.6zM0 25.6h1024v-89.6h-1024v89.6z" />
<glyph unicode="&#xe945;" glyph-name="align-right" data-tags="ikone1-100 copy-70" d="M360 960h664v-89.6h-664v89.6zM0 648.512h1024v-89.6h-1024v89.6zM352 337.088h672v-89.6h-672v89.6zM0 25.6h1024v-89.6h-1024v89.6z" />
<glyph unicode="&#xe946;" glyph-name="align-full" data-tags="ikone1-100 copy-71" d="M0 960h1024v-89.6h-1024v89.6zM0 648.512h1024v-89.6h-1024v89.6zM0 337.088h1024v-89.6h-1024v89.6zM0 25.6h1024v-89.6h-1024v89.6z" />
<glyph unicode="&#xe947;" glyph-name="color-swatch" data-tags="ikone1-100 copy-72" d="M1024 68.224c0-37.248-29.76-67.456-66.752-67.456h-890.496c-36.864 0-66.752 30.208-66.752 67.456v759.488c0 37.248 29.888 67.456 66.752 67.456h890.56c36.928 0 66.688-30.208 66.688-67.456v-759.488z" />
<glyph unicode="&#xe948;" glyph-name="color" data-tags="ikone1-100 copy-73" d="M998.848 426.56c-19.968 27.776-45.696 46.528-76.416 55.68-13.76 4.096-27.648 8-42.88 12.288-26.176 7.36-52.416 14.72-78.144 23.808-21.76 7.68-41.28 18.496-56.448 31.296-12.672 10.688-18.944 22.336-18.752 34.368 0.192 12.544 7.36 24.576 21.248 35.584 9.152 7.168 19.264 13.12 29.504 19.072l8.128 4.864c6.784 4.032 13.696 7.872 21.568 12.288 12.48 6.976 25.024 13.952 36.672 22.144 22.144 15.488 34.688 35.904 35.456 57.472 0.704 20.992-9.92 41.6-30.144 57.984-18.176 14.72-41.792 27.072-68.416 35.712-62.784 20.224-127.488 21.888-170.88 21.12h0.128c-136.576-2.176-241.28-24.64-339.648-72.832-109.248-53.568-182.272-119.424-229.696-207.232-56.32-104.32-53.376-206.976 8.832-305.344 34.624-54.784 79.104-98.048 132.224-128.448 105.536-60.48 215.872-90.816 329.92-90.816 79.488 0 160.704 14.72 243.392 44.096 109.568 39.040 193.92 107.776 250.624 204.352 27.072 45.888 25.024 89.28-6.272 132.544zM928 339.52c-45.824-78.016-114.304-133.632-203.52-165.44-72.64-25.792-144.448-38.848-213.312-38.848-97.984 0-193.984 26.56-285.376 78.912-40.256 22.976-74.24 56.192-101.056 98.56-44.8 70.912-46.656 139.2-5.696 214.912 38.592 71.488 97.28 123.776 190.336 169.408 85.824 42.048 178.816 61.696 301.568 63.68l14.784 0.128c50.24 0 91.84-5.568 127.232-16.96 5.76-1.856 11.328-4.032 16.512-6.336-2.048-1.216-38.336-21.952-38.336-21.952-13.312-7.808-26.816-16-39.168-25.792-34.88-27.648-54.592-64.704-55.232-104.256-0.576-39.296 17.344-76.224 50.56-104.32 23.232-19.712 52.416-36.032 84.416-47.36 27.264-9.6 55.104-17.472 82.88-25.344 15.68-4.288 28.992-8.128 42.176-12.096 7.424-2.24 18.432-6.912 29.44-22.208 10.496-14.656 10.752-19.456 1.792-34.688zM165.952 492.48c-0.32-28.672 34.496-51.84 78.272-52.16 42.88-0.32 80.128 23.68 80.128 51.456-0.064 28.288-35.84 51.008-80.064 50.944-43.648-0.064-78.016-22.144-78.336-50.24zM706.56 258.304c43.008 0 78.528 22.528 79.104 50.24 0.576 28.032-35.52 51.84-78.912 52.16-43.52 0.32-79.488-22.976-79.552-51.328-0.128-28.928 34.304-51.072 79.36-51.072zM432.256 360.704c-43.968-0.128-79.488-23.424-78.592-51.648 0.832-27.776 36.096-50.432 78.784-50.688 43.264-0.256 79.552 23.232 79.488 51.392 0 28.672-35.136 51.136-79.68 50.944zM510.912 598.208c43.84-0.448 80.192 22.656 80.192 50.752 0 27.584-34.944 50.816-77.568 51.584-43.264 0.832-80.128-22.272-80.704-50.56-0.64-28.928 33.344-51.392 78.080-51.776z" />
<glyph unicode="&#xe949;" glyph-name="size" data-tags="ikone1-100 copy-74" d="M444.736 960h579.264v-576h-579.264v576zM489.536 140.736h470.464v-89.6h-470.464v89.6zM934.4 256h89.6v-320h-89.6v320zM444.736 256h89.6v-320h-89.6v320zM115.2 896.384h89.664v-480.896h-89.664v480.896zM0 473.6h320v-89.6h-320v89.6zM0 960h320v-89.6h-320v89.6z" />
<glyph unicode="&#xe94a;" glyph-name="originx" data-tags="ikone1-100 copy-75" d="M934.4 608v-115.136h-622.080c-20.16 64.896-80.768 114.112-151.68 114.88-87.808 0.896-160.512-71.616-160.64-160.256-0.128-90.24 69.44-159.232 160.256-159.232 72.192 0 133.248 48.896 152.704 115.008h621.44v-115.264h89.6v320h-89.6z" />
<glyph unicode="&#xe94b;" glyph-name="originy" data-tags="ikone1-100 copy-76" d="M556.8 25.6v622.016c65.408 19.264 114.176 78.72 115.2 149.76 1.216 87.232-71.744 161.6-159.36 162.624-87.808 0.896-160.512-71.616-160.64-160.256-0.064-74.496 47.616-133.824 115.2-152.512v-621.632h-115.2v-89.6h320v89.6h-115.2z" />
<glyph unicode="&#xe94c;" glyph-name="bckgr" data-tags="ikone1-100 copy-77" d="M1024-64h-1024v1024h1024v-1024zM89.6 25.536h844.8v844.928h-844.8v-844.928z" />
<glyph unicode="&#xe94d;" glyph-name="posx" data-tags="ikone1-100 copy-78" d="M89.6-64h-89.6v1024h89.6v-218.24h844.8v115.2h89.6v-320h-89.6v115.136h-844.8z" />
<glyph unicode="&#xe94e;" glyph-name="posy" data-tags="ikone1-100 copy-79" d="M1024 870.4v89.6h-1024v-89.6h218.24v-844.8h-115.2v-89.6h320v89.6h-115.2v844.8z" />
<glyph unicode="&#xe94f;" glyph-name="width" data-tags="ikone1-100 copy-80" d="M934.4 608v-115.264h-844.8v115.264h-89.6v-320h89.6v115.136h844.8v-115.136h89.6v320z" />
<glyph unicode="&#xe950;" glyph-name="attach" data-tags="ikone1-100 copy-81" d="M601.6-64c-123.52 0-224 100.416-224 223.936v486.912c0 74.112 60.288 134.4 134.4 134.4 74.048 0 134.4-60.288 134.4-134.464v-472.512h-89.6v472.576c0 24.704-20.096 44.8-44.736 44.8-24.704 0-44.8-20.096-44.8-44.8v-486.912c0-74.048 60.224-134.336 134.4-134.336s134.4 60.224 134.4 134.336v486.144c-0.064 123.52-100.544 223.936-224.064 223.936s-224-100.416-224-223.936v-471.744h-89.6v471.744c0 172.864 140.672 313.536 313.6 313.536 172.864 0 313.536-140.672 313.536-313.536v-486.144c0.064-123.52-100.416-223.936-223.936-223.936z" />
<glyph unicode="&#xe951;" glyph-name="image" data-tags="ikone1-100 copy-82" horiz-adv-x="1280" d="M515.968 580.352c0-37.29-29.399-67.52-65.664-67.52s-65.664 30.23-65.664 67.52c0 37.29 29.399 67.52 65.664 67.52s65.664-30.23 65.664-67.52zM751.744 580.352l-252.608-336.256-111.744 148.8-208.192-277.184h921.6zM1011.2 691.2v-486.4h-742.4v486.4h742.4zM1100.8 780.8h-921.6v-665.6h921.6v665.6zM1190.4 870.4v-844.8h-1100.8v844.8h1100.8zM1280 960h-1280v-1024h1280v1024z" />
<glyph unicode="&#xe952;" glyph-name="distance" data-tags="ikone1-100 copy-83" d="M703.936 556.8v83.2h-83.136v320h-620.8v-620.8h319.936v-83.2h83.2v-320h620.864v620.8h-320.064zM89.6 428.8v441.6h441.6v-230.336h-211.2v-211.2h-230.4zM934.4 25.6h-441.6v230.4h211.136v211.2h230.4v-441.6z" />
<glyph unicode="&#xe953;" glyph-name="blur" data-tags="ikone1-100 copy-84" d="M603.008 832c0-50.651-41.061-91.712-91.712-91.712s-91.712 41.061-91.712 91.712c0 50.651 41.061 91.712 91.712 91.712s91.712-41.061 91.712-91.712zM365.44 704c0-60.654-49.17-109.824-109.824-109.824s-109.824 49.17-109.824 109.824c0 60.654 49.17 109.824 109.824 109.824s109.824-49.17 109.824-109.824zM603.008 576c0-50.651-41.061-91.712-91.712-91.712s-91.712 41.061-91.712 91.712c0 50.651 41.061 91.712 91.712 91.712s91.712-41.061 91.712-91.712zM840.448 704c0-40.613-32.923-73.536-73.536-73.536s-73.536 32.923-73.536 73.536c0 40.613 32.923 73.536 73.536 73.536s73.536-32.923 73.536-73.536zM365.44 448c0-60.654-49.17-109.824-109.824-109.824s-109.824 49.17-109.824 109.824c0 60.654 49.17 109.824 109.824 109.824s109.824-49.17 109.824-109.824zM603.008 320c0-50.651-41.061-91.712-91.712-91.712s-91.712 41.061-91.712 91.712c0 50.651 41.061 91.712 91.712 91.712s91.712-41.061 91.712-91.712zM840.448 448c0-40.613-32.923-73.536-73.536-73.536s-73.536 32.923-73.536 73.536c0 40.613 32.923 73.536 73.536 73.536s73.536-32.923 73.536-73.536zM365.44 192c0-60.654-49.17-109.824-109.824-109.824s-109.824 49.17-109.824 109.824c0 60.654 49.17 109.824 109.824 109.824s109.824-49.17 109.824-109.824zM603.008 64c0-50.651-41.061-91.712-91.712-91.712s-91.712 41.061-91.712 91.712c0 50.651 41.061 91.712 91.712 91.712s91.712-41.061 91.712-91.712zM840.448 192c0-40.613-32.923-73.536-73.536-73.536s-73.536 32.923-73.536 73.536c0 40.613 32.923 73.536 73.536 73.536s73.536-32.923 73.536-73.536zM255.616 850.112c60.672 0 109.824 49.152 109.824 109.888h-219.648c0-60.736 49.152-109.888 109.824-109.888zM766.912 886.528c40.64 0 73.472 32.896 73.472 73.472h-147.008c0-40.64 32.896-73.472 73.536-73.472zM255.616 45.76c-60.672 0-109.888-49.152-109.888-109.76h219.712c0 60.608-49.152 109.76-109.824 109.76zM766.912 9.472c-40.64 0-73.536-33.024-73.536-73.472h147.008c0 40.512-32.896 73.472-73.472 73.472zM1022.528 776.64c0.512 0 0.96 0.256 1.472 0.256v110.080c-0.576 0-0.96 0.256-1.472 0.256-30.592 0-55.36-24.768-55.36-55.232 0-30.592 24.768-55.36 55.36-55.36zM1022.528 520.64c0.512 0 0.96 0.256 1.472 0.256v110.080c-0.576 0-0.96 0.256-1.472 0.256-30.592 0-55.36-24.768-55.36-55.232 0-30.592 24.768-55.36 55.36-55.36zM1022.528 264.64c0.512 0 0.96 0.256 1.472 0.256v110.080c-0.576 0-0.96 0.256-1.472 0.256-30.592 0-55.36-24.768-55.36-55.232 0-30.656 24.768-55.36 55.36-55.36zM1024 118.976c-0.576 0-0.96 0.256-1.472 0.256-30.592 0-55.36-24.768-55.36-55.232 0-30.656 24.768-55.36 55.36-55.36 0.512 0 0.96 0.256 1.472 0.256v110.080zM128 576c0 70.592-57.28 128-128 128v-256c70.72 0 128 57.216 128 128zM128 64c0 70.656-57.28 128-128 128v-256c70.72 0 128 57.216 128 128zM128 320c0 70.656-57.28 128-128 128v-256c70.72 0 128 57.216 128 128zM128 832c0 70.656-57.28 128-128 128v-256c70.72 0 128 57.28 128 128z" />
<glyph unicode="&#xe954;" glyph-name="shadow-size" data-tags="ikone1-100 copy-85" d="M595.2 825.6v134.4h-595.2v-595.2h134.4v-428.8h889.6v889.6h-428.8zM89.6 454.4v416h416v-416h-416zM934.4 25.6h-710.4v339.2h115.2v-224h480v480h-224v115.2h339.2v-710.4z" />
<glyph unicode="&#xe955;" glyph-name="list-type" data-tags="ikone1-100 copy-86" d="M0 960h130.24v-89.6h-130.24v89.6zM0 648.576h130.24v-89.6h-130.24v89.6zM0 337.088h130.24v-89.6h-130.24v89.6zM0 25.6h130.24v-89.6h-130.24v89.6zM288.384 960h735.616v-89.6h-735.616v89.6zM288.384 648.576h735.616v-89.6h-735.616v89.6zM288.384 337.088h735.616v-89.6h-735.616v89.6zM288.384 25.6h735.616v-89.6h-735.616v89.6z" />
<glyph unicode="&#xe956;" glyph-name="list-pos" data-tags="ikone1-100 copy-87" d="M191.552 960h130.24v-89.6h-130.24v89.6zM191.552 648.576h130.24v-89.6h-130.24v89.6zM191.552 337.088h130.24v-89.6h-130.24v89.6zM191.552 25.6h130.24v-89.6h-130.24v89.6zM479.872 960h544.128v-89.6h-544.128v89.6zM479.872 648.576h544.128v-89.6h-544.128v89.6zM479.872 337.088h544.128v-89.6h-544.128v89.6zM479.872 25.6h544.128v-89.6h-544.128v89.6zM0 960h89.6v-1024h-89.6v1024z" />
<glyph unicode="&#xe957;" glyph-name="list-image" data-tags="ikone1-100 copy-88" d="M512.704 960h511.296v-89.6h-511.296v89.6zM512.704 648.576h511.296v-89.6h-511.296v89.6zM512.704 337.088h511.296v-89.6h-511.296v89.6zM512.704 25.6h511.296v-89.6h-511.296v89.6zM179.2 672h89.6v-448h-89.6v448zM0 492.736h448v-89.6h-448v89.6z" />
<glyph unicode="&#xe958;" glyph-name="repeat" data-tags="ikone1-100 copy-89" d="M0 960h192v-192h-192v192z" />
<glyph unicode="&#xe959;" glyph-name="repeat-XY" data-tags="ikone1-100 copy-90" d="M0 960h192v-192h-192v192zM0 544h192v-192h-192v192zM0 128h192v-192h-192v192zM416 960h192v-192h-192v192zM416 544h192v-192h-192v192zM416 128h192v-192h-192v192zM832 960h192v-192h-192v192zM832 544h192v-192h-192v192zM832 128h192v-192h-192v192z" />
<glyph unicode="&#xe95a;" glyph-name="repeat-X" data-tags="ikone1-100 copy-91" d="M0 960h192v-192h-192v192zM416 960h192v-192h-192v192zM832 960h192v-192h-192v192z" />
<glyph unicode="&#xe95b;" glyph-name="repeat-Y" data-tags="ikone1-100 copy-92" d="M0 960h192v-192h-192v192zM0 544h192v-192h-192v192zM0 128h192v-192h-192v192z" />
<glyph unicode="&#xe95c;" glyph-name="overflow-X" data-tags="ikone1-100 copy-93" horiz-adv-x="1280" d="M509.248 112.96l127.808 209.472 129.216-209.472h207.168l-225.792 328.64 209.92 341.44h-204.416l-115.136-207.104-119.744 207.104h-198.528l206.72-327.232-219.84-342.848zM0 960v-1024h1280v1024h-1280zM1187.2 29.824h-1094.4v836.352h1094.4v-836.352z" />
<glyph unicode="&#xe95d;" glyph-name="overflow-A" data-tags="ikone1-100 copy-94" horiz-adv-x="1280" d="M625.472 784.256h-238.72l-216.128-672.512h196.608l33.536 125.504h215.168l32.64-125.504h195.712l-218.816 672.512zM437.952 385.664c27.456 105.088 45.248 175.488 53.248 211.2s13.376 61.376 16.064 76.992c2.944-16.768 9.28-44.608 18.816-83.392 9.472-38.784 17.536-70.336 24.192-94.848l28.544-109.952h-140.864zM0 960v-1024h1280v1024h-1280zM1035.584 551.552v-521.728h-942.784v836.352h1094.4v-314.624h-151.616z" />
<glyph unicode="&#xe95e;" glyph-name="overflow-S" data-tags="ikone1-100 copy-95" horiz-adv-x="1280" d="M488.512 112.96c51.456 0 96.256 8.704 134.464 26.112s67.456 41.792 87.744 73.088c20.288 31.36 30.4 67.264 30.4 107.712 0 43.968-10.816 80.448-32.448 109.44-21.568 28.992-60.16 56.128-115.712 81.408-57.92 26.752-93.44 45.184-106.496 55.296-13.056 10.048-19.584 21.504-19.584 34.24 0 11.904 5.12 21.888 15.424 29.888s26.752 12.032 49.408 12.032c43.776 0 95.808-14.016 156.096-41.92l53.376 136c-69.376 31.232-137.408 46.784-204.16 46.784-75.52 0-134.912-16.768-178.112-50.368-43.264-33.536-64.896-80.384-64.896-140.416 0-32.128 5.056-59.904 15.232-83.392 10.112-23.488 25.728-44.288 46.72-62.4 21.056-18.176 52.544-36.864 94.592-56.192 46.464-21.12 75.008-35.072 85.76-41.92s18.56-13.568 23.36-20.288c4.864-6.72 7.296-14.464 7.296-23.424 0-14.272-6.016-25.92-18.112-35.008s-31.040-13.632-56.896-13.632c-30.016 0-62.912 4.864-98.752 14.464-35.904 9.664-70.464 23.168-103.616 40.32v-156.928c31.424-15.168 61.76-25.792 90.816-31.872 29.184-5.952 65.152-9.024 108.096-9.024zM1035.584 960h-1035.584v-1024h1280v1024h-244.416zM92.8 866.176h942.784v-836.288h-942.784v836.288z" />
<glyph unicode="&#xe95f;" glyph-name="float" data-tags="ikone1-100 copy-96" horiz-adv-x="1280" d="M179.2 780.8h921.6v-665.6h-921.6v665.6zM0 960v-1024h1280v1024h-1280zM1187.2 29.824h-1094.4v836.352h1094.4v-836.352z" />
<glyph unicode="&#xe960;" glyph-name="float-left" data-tags="ikone1-100 copy-97" horiz-adv-x="2304" d="M179.2 780.8h921.6v-665.6h-921.6v665.6zM0 960v-1024h2304v1024h-2304zM2211.2 29.824h-2118.4v836.352h2118.4v-836.352z" />
<glyph unicode="&#xe961;" glyph-name="float-right" data-tags="ikone1-100 copy-98" horiz-adv-x="2304" d="M1203.2 780.8h921.6v-665.6h-921.6v665.6zM0 960v-1024h2304v1024h-2304zM2211.2 29.824h-2118.4v836.352h2118.4v-836.352z" />
<glyph unicode="&#xe962;" glyph-name="shadow-out" data-tags="ikone1-100 copy-99" horiz-adv-x="1152" d="M179.2 780.8h793.6v-665.6h-793.6v665.6zM704.448 25.6h93.44v-89.6h-93.44v89.6zM1058.56 25.6h93.44v-89.6h-93.44v89.6zM881.472 25.6h93.44v-89.6h-93.44v89.6zM173.248 25.6h93.44v-89.6h-93.44v89.6zM350.336 25.6h93.44v-89.6h-93.44v89.6zM527.36 25.6h93.44v-89.6h-93.44v89.6zM704.448 960h93.44v-89.6h-93.44v89.6zM881.472 960h93.44v-89.6h-93.44v89.6zM173.248 960h93.44v-89.6h-93.44v89.6zM350.336 960h93.44v-89.6h-93.44v89.6zM527.36 960h93.44v-89.6h-93.44v89.6zM0 585.664h89.6v-89.088h-89.6v89.088zM0 772.544h89.6v-89.024h-89.6v89.024zM0 398.784h89.6v-89.024h-89.6v89.024zM0 25.024h89.6v-89.024h-89.6v89.024zM0 211.904h89.6v-89.088h-89.6v89.088zM0 960h89.6v-89.6h-89.6v89.6zM1062.4 585.664h89.6v-89.088h-89.6v89.088zM1062.4 772.544h89.6v-89.024h-89.6v89.024zM1062.4 398.784h89.6v-89.024h-89.6v89.024zM1062.4 211.904h89.6v-89.088h-89.6v89.088zM1062.4 960h89.6v-89.6h-89.6v89.6z" />
<glyph unicode="&#xe963;" glyph-name="shadow-in" data-tags="ikone1-100 copy-100" horiz-adv-x="1152" d="M0 960v-1024h1152v1024h-1152zM179.264 25.6h-89.664v89.6h89.6v-89.6zM179.264 177.088h-89.664v89.088h89.6v-89.088zM179.264 328.064h-89.664v88.96h89.6v-88.96zM179.264 478.912h-89.664v89.088h89.6v-89.088zM179.264 629.888h-89.664v88.96h89.6v-88.96zM179.264 780.736h-89.664v89.664h89.6v-89.664zM355.904 25.6h-93.44v89.6h93.44v-89.6zM355.904 780.736h-93.44v89.664h93.44v-89.664zM532.48 25.6h-93.44v89.6h93.44v-89.6zM532.48 780.736h-93.44v89.664h93.44v-89.664zM709.12 25.6h-93.44v89.6h93.44v-89.6zM709.12 780.736h-93.44v89.664h93.44v-89.664zM885.76 25.6h-93.44v89.6h93.44v-89.6zM885.76 780.736h-93.44v89.664h93.44v-89.664zM1062.4 25.6h-93.44v89.6h93.44v-89.6zM1062.4 177.088h-89.6v89.088h89.6v-89.088zM1062.4 328.064h-89.6v88.96h89.6v-88.96zM1062.4 478.912h-89.6v89.088h89.6v-89.088zM1062.4 629.888h-89.6v88.96h89.6v-88.96zM1062.4 780.736h-93.44v89.664h93.44v-89.664z" />
<glyph unicode="&#xe964;" glyph-name="no-affected" data-tags="ikone100- copy-01" d="M556.8 960h467.2v-467.2h-467.2v467.2zM377.6 870.4v-288h-288v288h288zM467.2 960h-467.2v-467.2h467.2v467.2zM934.4 313.6v-288h-288v288h288zM1024 403.2h-467.2v-467.2h467.2v467.2zM377.6 313.6v-288h-288v288h288zM467.2 403.2h-467.2v-467.2h467.2v467.2z" />
<glyph unicode="&#xe965;" glyph-name="plus-square" data-tags="ikone100- copy-02" d="M1024-64h-1024v1024h1024v-1024zM89.6 25.536h844.8v844.928h-844.8v-844.928zM556.8 492.672v268.736h-89.6v-268.736h-268.8v-89.664h268.8v-268.416h89.6v268.416h268.8v89.664z" />
<glyph unicode="&#xe966;" glyph-name="plus" data-tags="ikone100- copy-03" d="M556.8 492.672v268.736h-89.6v-268.736h-268.8v-89.664h268.8v-268.416h89.6v268.416h268.8v89.664z" />
<glyph unicode="&#xe967;" glyph-name="css-panel" data-tags="css-panel" horiz-adv-x="1025" d="M340.16 518.72c0.704 16.384 1.344 24.256 1.344 32.128 0 70.528-29.76 105.6-89.408 105.6-57.664 0-86.784-32.704-86.784-97.024v-222.784c0-64.384 29.184-97.152 86.784-97.152 59.648 0 89.408 35.776 89.408 107.392 0 9.728 0 18.304-1.344 42.56h-61.568c0.64-20.096 1.28-31.616 1.28-41.856 0-43.2-5.952-55.296-27.776-55.296-19.84 0-25.152 9.152-25.152 44.352v222.848c0 35.2 5.312 44.352 25.152 44.352 21.824 0 27.776-12.16 27.776-57.088 0-8.576 0-14.656-1.28-27.968h61.568zM526.528 479.232c-41.792 55.296-43.712 61.952-43.712 86.912 0 24.256 9.216 37.696 25.856 37.696 13.888 0 23.872-9.152 25.856-25.6 1.344-8.448 2.048-15.808 2.048-36.416l60.224 5.504c0 31.616-0.704 35.776-3.968 50.432-7.936 36.288-38.464 58.752-80.192 58.752-55.68 0-90.816-33.984-90.816-87.296 0-35.904 11.968-64.384 50.432-115.968l30.464-41.28c27.84-38.336 37.696-53.568 37.696-79.616s-9.856-40.064-27.776-40.064c-23.872 0-31.808 13.312-31.808 55.296v17.6l-60.928-2.496c-0.704-9.664-0.704-15.104-0.704-21.888 0-35.2 4.544-52.224 19.2-70.4 17.216-21.184 40.384-30.912 73.536-30.912 57.664 0 90.112 30.336 90.112 84.352 0 34.496-15.936 75.84-44.416 114.048l-31.104 41.344zM814.272 437.952l-31.104 41.28c-41.664 55.296-43.712 61.952-43.712 86.848 0 24.256 9.28 37.696 25.856 37.696 13.952 0 23.872-9.152 25.856-25.6 1.344-8.448 2.048-15.808 2.048-36.416l60.224 5.504c0 31.616-0.704 35.776-3.968 50.432-7.936 36.352-38.4 58.752-80.192 58.752-55.616 0-90.816-33.984-90.816-87.296 0-35.904 11.968-64.384 50.432-115.968l30.464-41.28c27.84-38.272 37.76-53.504 37.76-79.552s-9.856-40.064-27.776-40.064c-23.872 0-31.744 13.312-31.744 55.296v17.6l-60.992-2.496c-0.768-9.664-0.768-15.104-0.768-21.888 0-35.2 4.672-52.224 19.264-70.4 17.28-21.184 40.448-30.912 73.472-30.912 57.664 0 90.112 30.336 90.112 84.352 0.064 34.56-15.808 75.84-44.416 114.112zM165.248 960h158.72v-89.6h-158.72v89.6zM399.68 960h158.72v-89.6h-158.72v89.6zM634.112 960h158.72v-89.6h-158.72v89.6zM868.48 960h155.52v-89.6h-155.52v89.6zM0 25.6h158.72v-89.6h-158.72v89.6zM234.368 25.6h158.72v-89.6h-158.72v89.6zM468.864 25.6h158.72v-89.6h-158.72v89.6zM703.232 25.6h155.52v-89.6h-155.52v89.6zM934.4 794.752h89.6v-158.72h-89.6v158.72zM934.4 560.32h89.6v-158.72h-89.6v158.72zM934.4 325.888h89.6v-158.72h-89.6v158.72zM934.4 91.52h89.6v-155.52h-89.6v155.52zM0 960h89.6v-158.72h-89.6v158.72zM0 725.632h89.6v-158.72h-89.6v158.72zM0 491.136h89.6v-158.72h-89.6v158.72zM0 256.768h89.6v-155.52h-89.6v155.52z" />
<glyph unicode="&#xe968;" glyph-name="tools" data-tags="tools" horiz-adv-x="1025" d="M929.536 946.496c-11.52 9.28-26.432 13.504-41.216 13.504h-52.544v-133.12c0-30.976-25.088-56.064-56.064-56.064h-10.624c-31.232 0-56.512 25.28-56.512 56.512v132.672h-53.952c-14.784 0-29.696-4.224-41.216-13.44-75.456-60.352-109.248-157.312-88.256-251.968 14.464-65.152 55.424-119.744 109.952-154.432v-469.696c0-74.24 60.16-134.4 134.4-134.4s134.4 60.16 134.4 134.4v470.4c15.168 9.472 29.76 19.968 42.688 32.96 47.36 47.36 73.408 110.336 73.408 177.344 0 75.904-34.56 147.328-94.464 195.328zM887.232 637.184c-6.592-6.656-14.976-12.992-26.624-20.224l-42.304-26.304v-520.192c0-24.704-20.032-44.8-44.736-44.8-24.768 0-44.8 20.096-44.8 44.8v518.848l-41.472 26.432c-36.672 23.296-61.76 58.176-70.72 98.304-7.296 32.896-4.352 66.112 7.36 95.872 8.64-72.384 70.4-128.704 145.088-128.704h10.624c73.792 0 134.912 55.104 144.448 126.336 6.72-17.792 10.304-36.864 10.304-56.32 0-43.136-16.768-83.584-47.168-114.048zM150.080 959.872l-150.080-115.584v-281.152h114.368v-492.672c0-74.24 60.16-134.4 134.4-134.4 0.32 0 0.704 0.128 1.024 0.128s0.704-0.128 1.024-0.128c7.744 0 15.296 0.896 22.592 2.496 62.4 11.584 109.76 66.112 109.76 131.904v492.672h76.224v396.736h-309.312zM257.024 26.688l-4.8-0.768-2.432 0.192-4.032-0.32c-23.36 1.536-41.792 21.056-41.792 44.736v492.608h89.536v-492.672c0-21.44-15.296-39.808-36.48-43.776zM369.792 652.736h-280.128v147.456l90.944 70.080h189.184v-217.536z" />
<glyph unicode="&#xe969;" glyph-name="tree" data-tags="tree" d="M1024 678.4v281.6h-341.312v-96h-215.488v-371.2h-125.888v96h-341.312v-281.6h341.312v96h125.888v-371.2h215.488v-96h341.312v281.6h-341.312v-96h-125.888v281.6h125.824v-96h341.376v281.6h-341.312v-96h-125.888v281.6h125.824v-96h341.376zM772.288 870.4h162.112v-102.4h-162.112v102.4zM251.712 396.8h-162.112v102.4h162.112v-102.4zM772.288 128h162.112v-102.4h-162.112v102.4zM772.288 499.2h162.112v-102.4h-162.112v102.4z" />
<glyph unicode="&#xe96a;" glyph-name="108" data-tags="ikone100- copy-08" horiz-adv-x="1025" d="M934.4 870.4v-844.8h-844.8v844.8h844.8zM1024 960h-1024v-1024h1024v1024zM179.2 204.8h665.6v-89.6h-665.6v89.6z" />
<glyph unicode="&#xe96b;" glyph-name="REFRESH" data-tags="ikone100- copy_REFRESH" horiz-adv-x="1025" d="M88.384 448c0 0 0 0 0 0 0 233.6 190.016 423.616 423.68 423.616 103.744 0 202.432-37.888 280.192-107.2h-69.696c-24.384 0-44.16-19.84-44.16-44.16s19.84-44.16 44.16-44.16h239.744v239.744c0 24.384-19.84 44.16-44.16 44.16s-44.16-19.84-44.16-44.16v-106.496c-95.872 96-226.56 150.656-361.984 150.656-282.304 0-512-229.696-512-512 0 0 0 0 0 0h88.384zM935.616 448c0 0 0 0 0 0 0-233.6-190.016-423.616-423.68-423.616-103.744 0-202.432 37.888-280.192 107.2h69.696c24.384 0 44.16 19.84 44.16 44.16s-19.84 44.16-44.16 44.16h-239.744v-239.744c0-24.384 19.84-44.16 44.16-44.16s44.16 19.84 44.16 44.16v106.496c95.872-96 226.56-150.656 361.984-150.656 282.368 0 512 229.696 512 512 0 0 0 0 0 0h-88.384z" />
<glyph unicode="&#xe96c;" glyph-name="113" data-tags="ikone100- copy-13" horiz-adv-x="1025" d="M625.792 704l-166.272-512h398.208l166.272 512h-398.208zM792.64 281.6h-209.792l108.032 332.8h209.792l-108.032-332.8zM0 492.8h428.16v-89.6h-428.16v89.6zM0 704h498.048v-89.6h-498.048v89.6zM0 281.6h356.8v-89.6h-356.8v89.6z" />
<glyph unicode="&#xe96d;" glyph-name="KODA" data-tags="ikone100- copy_KODA" horiz-adv-x="1025" d="M0 449.408l255.424-255.424 72.384 72.384-182.976 183.040 181.952 181.952-72.32 72.384zM1024 449.408l-255.424-255.424-72.384 72.384 182.912 183.040-181.888 181.952 72.32 72.384zM456.896 39.808l206.272 816.384h-96.064l-206.272-816.384z" />
<glyph unicode="&#xe96e;" glyph-name="JS" data-tags="ikone100- copy_.JS" horiz-adv-x="1025" d="M799.872 434.368l-40.704 54.080c-54.656 72.448-57.28 81.152-57.28 113.856 0 31.808 12.096 49.344 33.856 49.344 18.24 0 31.296-11.968 33.856-33.536 1.792-11.072 2.688-20.672 2.688-47.744l78.912 7.232c0 41.408-0.896 46.848-5.184 66.112-10.432 47.616-50.304 76.992-105.088 76.992-72.896 0-118.976-44.48-118.976-114.432 0-47.040 15.68-84.416 66.048-152l39.936-54.080c36.48-50.112 49.472-70.080 49.472-104.192 0-34.176-12.928-52.48-36.416-52.48-31.296 0-41.6 17.472-41.6 72.448v23.040l-80-3.2c-0.896-12.736-0.896-19.776-0.896-28.672 0-46.144 6.144-68.48 25.216-92.224 22.592-27.776 52.992-40.512 96.32-40.512 75.52 0 118.144 39.744 118.144 110.592-0.064 45.184-20.8 99.264-58.304 149.376zM372.928 370.816c-0.832-26.304-1.728-41.408-1.728-54.848 0-56.64 7.808-72.448 36.416-72.448 26.048 0 32.96 11.968 32.96 58.112v420.032h80.768v-420.032c0-84.416-38.208-127.296-113.728-127.296-78.144 0-117.12 46.848-117.12 140.736 0 12.736 0 23.936 1.792 55.744h80.64zM79.808 961.92v-542.272h-7.296c-40.064 0.064-72.512-32.448-72.512-72.448v-100.352c0-40 32.448-72.512 72.512-72.512h7.36v-238.336h944.128v1025.92h-944.192zM934.4 25.6h-764.992v149.184c39.040 1.152 70.4 32.768 70.4 72.064v100.352c0 39.296-31.36 70.912-70.4 72.064v453.056h764.992v-846.72z" />
<glyph unicode="&#xe96f;" glyph-name="I" data-tags="ikone100- copy_I" horiz-adv-x="1025" d="M455.488 780.8h112.96v-665.6h-112.96v665.6zM1024-64.448h-1024v1024.448h1024v-1024.448zM89.6 25.216h844.8v845.184h-844.8v-845.184z" />
<glyph unicode="&#xe970;" glyph-name="109" data-tags="ikone100--09" horiz-adv-x="1025" d="M780.8 780.8h-307.2v-89.6h218.176l-250.112-250.176 63.36-63.36 250.176 250.112v-218.752h89.6v307.776c0 35.328-28.672 64-64 64zM934.4 870.4v-844.8h-844.8v844.8h844.8zM1024 960h-1024v-1024h1024v1024z" />
<glyph unicode="&#xe971;" glyph-name="I2" data-tags="ikone100- copy_I copy" horiz-adv-x="1025" d="M1024-64l-1024 1.152v1022.848l1024-1.152v-1022.848zM89.6 26.752l844.8-1.152v843.648l-844.8 1.152v-843.648zM844.8 456.256h-89.664v234.88h-234.88v89.664h324.544z" />
<glyph unicode="&#xe972;" glyph-name="IPAD" data-tags="ikone100- copy_IPAD" horiz-adv-x="1025" d="M845.632 960h-667.264c-49.024 0-88.768-39.744-88.768-88.768v-846.464c0-49.024 39.744-88.768 88.768-88.768h667.264c49.024 0 88.768 39.744 88.768 88.768v846.464c0 49.024-39.744 88.768-88.768 88.768zM512-12.224c-24.768 0-44.8 20.032-44.8 44.8s20.032 44.8 44.8 44.8c24.768 0 44.8-20.032 44.8-44.8s-20.032-44.8-44.8-44.8zM179.2 128.576l-0.832 741.824h666.432l0.832-741.824h-666.432z" />
<glyph unicode="&#xe973;" glyph-name="drag-horiz-x225" data-tags="ikone100- copy_drag-horiz" d="M545.472 511.68c0-18.486-14.986-33.472-33.472-33.472s-33.472 14.986-33.472 33.472c0 18.486 14.986 33.472 33.472 33.472s33.472-14.986 33.472-33.472zM512 674.496c18.496 0 33.472-14.976 33.472-33.472s-14.976-33.472-33.472-33.472c-18.496 0-33.472 14.976-33.472 33.472s14.976 33.472 33.472 33.472zM512 803.904c18.496 0 33.472-14.976 33.472-33.472s-14.976-33.472-33.472-33.472c-18.496 0-33.472 14.976-33.472 33.472s14.976 33.472 33.472 33.472zM545.472 899.84c0-18.486-14.986-33.472-33.472-33.472s-33.472 14.986-33.472 33.472c0 18.486 14.986 33.472 33.472 33.472s33.472-14.986 33.472-33.472zM545.472 124.544c0-18.486-14.986-33.472-33.472-33.472s-33.472 14.986-33.472 33.472c0 18.486 14.986 33.472 33.472 33.472s33.472-14.986 33.472-33.472zM545.472-3.776c0-18.486-14.986-33.472-33.472-33.472s-33.472 14.986-33.472 33.472c0 18.486 14.986 33.472 33.472 33.472s33.472-14.986 33.472-33.472zM512 287.36c18.496 0 33.472-14.976 33.472-33.472s-14.976-33.472-33.472-33.472c-18.496 0-33.472 14.976-33.472 33.472s14.976 33.472 33.472 33.472zM512 416.768c18.496 0 33.472-14.976 33.472-33.472s-14.976-33.472-33.472-33.472c-18.496 0-33.472 14.976-33.472 33.472s14.976 33.472 33.472 33.472z" />
<glyph unicode="&#xe974;" glyph-name="drag-kotni" data-tags="ikone100- copy_drag-kotni" d="M1024 11.328c0-41.567-33.697-75.264-75.264-75.264s-75.264 33.697-75.264 75.264c0 41.567 33.697 75.264 75.264 75.264s75.264-33.697 75.264-75.264zM948.736 377.728c41.536 0 75.264-33.728 75.264-75.264 0-41.6-33.728-75.328-75.264-75.328s-75.264 33.728-75.264 75.328c0 41.536 33.664 75.264 75.264 75.264zM732.928 11.328c0-41.603-33.725-75.328-75.328-75.328s-75.328 33.725-75.328 75.328c0 41.603 33.725 75.328 75.328 75.328s75.328-33.725 75.328-75.328zM441.728 11.328c0-41.603-33.725-75.328-75.328-75.328s-75.328 33.725-75.328 75.328c0 41.603 33.725 75.328 75.328 75.328s75.328-33.725 75.328-75.328zM150.528 11.328c0-41.567-33.697-75.264-75.264-75.264s-75.264 33.697-75.264 75.264c0 41.567 33.697 75.264 75.264 75.264s75.264-33.697 75.264-75.264zM732.928 302.464c0-41.603-33.725-75.328-75.328-75.328s-75.328 33.725-75.328 75.328c0 41.603 33.725 75.328 75.328 75.328s75.328-33.725 75.328-75.328zM441.728 302.464c0-41.603-33.725-75.328-75.328-75.328s-75.328 33.725-75.328 75.328c0 41.603 33.725 75.328 75.328 75.328s75.328-33.725 75.328-75.328zM948.736 668.864c41.536 0 75.264-33.728 75.264-75.264 0-41.6-33.728-75.328-75.264-75.328s-75.264 33.728-75.264 75.328c0 41.536 33.664 75.264 75.264 75.264zM732.928 593.6c0-41.603-33.725-75.328-75.328-75.328s-75.328 33.725-75.328 75.328c0 41.603 33.725 75.328 75.328 75.328s75.328-33.725 75.328-75.328zM1024 884.736c0-41.603-33.725-75.328-75.328-75.328s-75.328 33.725-75.328 75.328c0 41.603 33.725 75.328 75.328 75.328s75.328-33.725 75.328-75.328z" />
<glyph unicode="&#xe975;" glyph-name="drag-vert-x225" data-tags="ikone100- copy_drag-vert" d="M481.792 448c0-18.486-14.986-33.472-33.472-33.472s-33.472 14.986-33.472 33.472c0 18.486 14.986 33.472 33.472 33.472s33.472-14.986 33.472-33.472zM285.504 448c0 18.496 14.976 33.472 33.472 33.472s33.472-14.976 33.472-33.472c0-18.496-14.976-33.472-33.472-33.472s-33.472 14.976-33.472 33.472zM156.096 448c0 18.496 14.976 33.472 33.472 33.472s33.472-14.976 33.472-33.472c0-18.496-14.976-33.472-33.472-33.472s-33.472 14.976-33.472 33.472zM93.632 448c0-18.486-14.986-33.472-33.472-33.472s-33.472 14.986-33.472 33.472c0 18.486 14.986 33.472 33.472 33.472s33.472-14.986 33.472-33.472zM868.928 448c0-18.486-14.986-33.472-33.472-33.472s-33.472 14.986-33.472 33.472c0 18.486 14.986 33.472 33.472 33.472s33.472-14.986 33.472-33.472zM997.248 448c0-18.486-14.986-33.472-33.472-33.472s-33.472 14.986-33.472 33.472c0 18.486 14.986 33.472 33.472 33.472s33.472-14.986 33.472-33.472zM672.64 448c0 18.496 14.976 33.472 33.472 33.472s33.472-14.976 33.472-33.472c0-18.496-14.976-33.472-33.472-33.472s-33.472 14.976-33.472 33.472zM543.232 448c0 18.496 14.976 33.472 33.472 33.472s33.472-14.976 33.472-33.472c0-18.496-14.976-33.472-33.472-33.472s-33.472 14.976-33.472 33.472z" />
<glyph unicode="&#xe976;" glyph-name="drag-horiz-double-x225" data-tags="ikone100- copy_drah-horiz2" d="M478.528 511.68c0-18.486-14.986-33.472-33.472-33.472s-33.472 14.986-33.472 33.472c0 18.486 14.986 33.472 33.472 33.472s33.472-14.986 33.472-33.472zM445.056 674.496c18.496 0 33.472-14.976 33.472-33.472s-14.976-33.472-33.472-33.472c-18.496 0-33.472 14.976-33.472 33.472s14.976 33.472 33.472 33.472zM445.056 803.904c18.496 0 33.472-14.976 33.472-33.472s-14.976-33.472-33.472-33.472c-18.496 0-33.472 14.976-33.472 33.472s14.976 33.472 33.472 33.472zM478.528 899.84c0-18.486-14.986-33.472-33.472-33.472s-33.472 14.986-33.472 33.472c0 18.486 14.986 33.472 33.472 33.472s33.472-14.986 33.472-33.472zM478.528 124.544c0-18.486-14.986-33.472-33.472-33.472s-33.472 14.986-33.472 33.472c0 18.486 14.986 33.472 33.472 33.472s33.472-14.986 33.472-33.472zM478.528-3.776c0-18.486-14.986-33.472-33.472-33.472s-33.472 14.986-33.472 33.472c0 18.486 14.986 33.472 33.472 33.472s33.472-14.986 33.472-33.472zM445.056 287.36c18.496 0 33.472-14.976 33.472-33.472s-14.976-33.472-33.472-33.472c-18.496 0-33.472 14.976-33.472 33.472s14.976 33.472 33.472 33.472zM445.056 416.768c18.496 0 33.472-14.976 33.472-33.472s-14.976-33.472-33.472-33.472c-18.496 0-33.472 14.976-33.472 33.472s14.976 33.472 33.472 33.472zM612.416 511.68c0-18.486-14.986-33.472-33.472-33.472s-33.472 14.986-33.472 33.472c0 18.486 14.986 33.472 33.472 33.472s33.472-14.986 33.472-33.472zM578.944 674.496c18.496 0 33.472-14.976 33.472-33.472s-14.976-33.472-33.472-33.472c-18.496 0-33.472 14.976-33.472 33.472s14.976 33.472 33.472 33.472zM578.944 803.904c18.496 0 33.472-14.976 33.472-33.472s-14.976-33.472-33.472-33.472c-18.496 0-33.472 14.976-33.472 33.472s14.976 33.472 33.472 33.472zM612.416 899.84c0-18.486-14.986-33.472-33.472-33.472s-33.472 14.986-33.472 33.472c0 18.486 14.986 33.472 33.472 33.472s33.472-14.986 33.472-33.472zM612.416 124.544c0-18.486-14.986-33.472-33.472-33.472s-33.472 14.986-33.472 33.472c0 18.486 14.986 33.472 33.472 33.472s33.472-14.986 33.472-33.472zM612.416-3.776c0-18.486-14.986-33.472-33.472-33.472s-33.472 14.986-33.472 33.472c0 18.486 14.986 33.472 33.472 33.472s33.472-14.986 33.472-33.472zM578.944 287.36c18.496 0 33.472-14.976 33.472-33.472s-14.976-33.472-33.472-33.472c-18.496 0-33.472 14.976-33.472 33.472s14.976 33.472 33.472 33.472zM578.944 416.768c18.496 0 33.472-14.976 33.472-33.472s-14.976-33.472-33.472-33.472c-18.496 0-33.472 14.976-33.472 33.472s14.976 33.472 33.472 33.472z" />
<glyph unicode="&#xe977;" glyph-name="drag-vert-double-x225" data-tags="ikone100- copy_drag-vert2" d="M481.792 381.056c0-18.486-14.986-33.472-33.472-33.472s-33.472 14.986-33.472 33.472c0 18.486 14.986 33.472 33.472 33.472s33.472-14.986 33.472-33.472zM285.504 381.056c0 18.496 14.976 33.472 33.472 33.472s33.472-14.976 33.472-33.472c0-18.496-14.976-33.472-33.472-33.472s-33.472 14.976-33.472 33.472zM156.096 381.056c0 18.496 14.976 33.472 33.472 33.472s33.472-14.976 33.472-33.472c0-18.496-14.976-33.472-33.472-33.472s-33.472 14.976-33.472 33.472zM93.632 381.056c0-18.486-14.986-33.472-33.472-33.472s-33.472 14.986-33.472 33.472c0 18.486 14.986 33.472 33.472 33.472s33.472-14.986 33.472-33.472zM868.928 381.056c0-18.486-14.986-33.472-33.472-33.472s-33.472 14.986-33.472 33.472c0 18.486 14.986 33.472 33.472 33.472s33.472-14.986 33.472-33.472zM997.248 381.056c0-18.486-14.986-33.472-33.472-33.472s-33.472 14.986-33.472 33.472c0 18.486 14.986 33.472 33.472 33.472s33.472-14.986 33.472-33.472zM672.64 381.056c0 18.496 14.976 33.472 33.472 33.472s33.472-14.976 33.472-33.472c0-18.496-14.976-33.472-33.472-33.472s-33.472 14.976-33.472 33.472zM543.232 381.056c0 18.496 14.976 33.472 33.472 33.472s33.472-14.976 33.472-33.472c0-18.496-14.976-33.472-33.472-33.472s-33.472 14.976-33.472 33.472zM481.792 514.944c0-18.486-14.986-33.472-33.472-33.472s-33.472 14.986-33.472 33.472c0 18.486 14.986 33.472 33.472 33.472s33.472-14.986 33.472-33.472zM285.504 514.944c0 18.496 14.976 33.472 33.472 33.472s33.472-14.976 33.472-33.472c0-18.496-14.976-33.472-33.472-33.472s-33.472 14.976-33.472 33.472zM156.096 514.944c0 18.496 14.976 33.472 33.472 33.472s33.472-14.976 33.472-33.472c0-18.496-14.976-33.472-33.472-33.472s-33.472 14.976-33.472 33.472zM93.632 514.944c0-18.486-14.986-33.472-33.472-33.472s-33.472 14.986-33.472 33.472c0 18.486 14.986 33.472 33.472 33.472s33.472-14.986 33.472-33.472zM868.928 514.944c0-18.486-14.986-33.472-33.472-33.472s-33.472 14.986-33.472 33.472c0 18.486 14.986 33.472 33.472 33.472s33.472-14.986 33.472-33.472zM997.248 514.944c0-18.486-14.986-33.472-33.472-33.472s-33.472 14.986-33.472 33.472c0 18.486 14.986 33.472 33.472 33.472s33.472-14.986 33.472-33.472zM672.64 514.944c0 18.496 14.976 33.472 33.472 33.472s33.472-14.976 33.472-33.472c0-18.496-14.976-33.472-33.472-33.472s-33.472 14.976-33.472 33.472zM543.232 514.944c0 18.496 14.976 33.472 33.472 33.472s33.472-14.976 33.472-33.472c0-18.496-14.976-33.472-33.472-33.472s-33.472 14.976-33.472 33.472z" />
<glyph unicode="&#xe978;" glyph-name="ikone100--copy_laptop" data-tags="ikone100- copy_laptop" d="M998.016 192h-371.584c-0.128-16.512-14.272-29.888-31.744-29.888h-165.376c-17.472 0-31.616 13.376-31.744 29.888h-371.584c-14.336 0-25.984-11.008-25.984-24.576v-11.712c0-13.568 11.648-24.576 25.984-24.576h972.096c14.336 0 25.984 11.008 25.984 24.576v11.712c-0.064 13.568-11.712 24.576-26.048 24.576zM121.856 192.192h780.224c17.216 0.576 30.976 14.464 30.976 31.808v576c0 17.664-14.336 32-32 32h-778.176c-17.664 0-32-14.336-32-32v-576c0-17.344 13.824-31.232 30.976-31.808zM154.88 768h714.24v-512h-714.24v512z" />
<glyph unicode="&#xe979;" glyph-name="zoom-minus" data-tags="ikone100- copy_lupa minus" d="M192 620.864h384v-89.6h-384v89.6zM1023.936-0.576l-338.752 338.752c51.712 65.472 82.816 147.904 82.816 237.76 0 212.032-171.904 384-384 384s-384-171.904-384-384 171.904-384 384-384c89.856 0 172.352 31.104 237.76 82.816l338.752-338.752 63.424 63.424zM384.064 281.6c-162.304 0-294.4 132.032-294.4 294.4s132.032 294.4 294.4 294.4 294.4-132.032 294.4-294.4-132.096-294.4-294.4-294.4z" />
<glyph unicode="&#xe97a;" glyph-name="minus-circle" data-tags="ikone100- copy_minus v krogu" d="M512 870.4c232.896 0 422.4-189.504 422.4-422.464 0-232.896-189.504-422.336-422.4-422.336s-422.4 189.44-422.4 422.336c0 232.96 189.504 422.464 422.4 422.464zM512 960c-282.368 0-512-229.696-512-512.064s229.632-511.936 512-511.936 512 229.632 512 511.936-229.632 512.064-512 512.064v0zM256 492.8h512v-89.6h-512v89.6z" />
<glyph unicode="&#xe97b;" glyph-name="tableta-lezeca" data-tags="ikone100- copy_tableta lezeca" d="M0 793.6v-691.2c0-17.728 14.336-32 32-32h960c17.664 0 32 14.272 32 32v691.2c0 17.664-14.336 32-32 32h-960c-17.664 0-32-14.336-32-32zM891.008 736v-576h-801.408v576h801.408z" />
<glyph unicode="&#xe97c;" glyph-name="duplicate" data-tags="duplicate" d="M747.776 688.384c-48.192 156.928-192.768 271.616-365.504 271.616-212.096 0-384-171.904-384-384 0-173.632 115.84-318.848 273.984-366.336 47.424-158.272 194.048-273.664 367.744-273.664 212.096 0 384 171.904 384 384 0 174.592-116.672 321.728-276.224 368.384zM87.872 576c0 162.304 132.096 294.4 294.4 294.4 116.288 0 215.744-68.48 263.424-166.656-1.92 0-3.776 0.256-5.696 0.256-212.096 0-384-171.904-384-384 0-2.752 0.384-5.44 0.384-8.192-99.136 47.36-168.512 147.2-168.512 264.192zM640 25.6c-162.304 0-294.4 132.096-294.4 294.4s132.096 294.4 294.4 294.4c162.304 0 294.4-132.032 294.4-294.4 0-162.304-132.096-294.4-294.4-294.4zM832.064 364.864h-147.136v147.2h-89.664v-147.2h-147.2v-89.6h147.2v-147.2h89.664v147.2h147.136z" />
<glyph unicode="&#xe97d;" glyph-name="128" data-tags="ikone100--28" d="M755.2-64v268.48h268.8v89.6h-268.8v186.304h-89.6v-186.304h-179.2v-89.6h179.2v-268.48zM755.2 294.080v268.8h-89.6v-268.8zM665.6 294.080h-268.8v-89.6h268.8zM0 960v-934.4h576v89.6h-486.4v755.2h755.2v-510.784h89.6v600.384z" />
<glyph unicode="&#xe97e;" glyph-name="129" data-tags="ikone100--29" d="M466.56 941.376l-183.936-183.936 63.36-63.36 120.96 120.96v-265.728h89.6v265.728l121.664-121.664 63.36 63.36-184.512 184.64c-25.024 24.96-65.536 24.96-90.496 0zM466.56-45.248l-183.936 183.936 63.36 63.36 120.96-120.96v265.664h89.6v-265.728l121.664 121.664 63.36-63.36-184.512-184.576c-25.024-25.024-65.536-25.024-90.496 0zM1005.44 493.696l-183.936 183.936-63.36-63.36 120.96-120.96h-265.664v-89.664h265.728l-121.664-121.664 63.36-63.36 184.64 184.64c24.96 24.896 24.96 65.408-0.064 90.432zM18.88 493.696l183.936 183.936 63.36-63.36-120.96-120.96h265.664v-89.664h-265.728l121.664-121.664-63.36-63.36-184.576 184.512c-25.024 25.024-25.024 65.536 0 90.56z" />
<glyph unicode="&#xe97f;" glyph-name="130" data-tags="ikone100--30" d="M165.248 960h158.72v-89.6h-158.72v89.6zM399.68 960h158.72v-89.6h-158.72v89.6zM634.112 960h158.72v-89.6h-158.72v89.6zM868.48 960h155.52v-89.6h-155.52v89.6zM0 25.6h158.72v-89.6h-158.72v89.6zM234.368 25.6h158.72v-89.6h-158.72v89.6zM468.864 25.6h158.72v-89.6h-158.72v89.6zM703.232 25.6h155.52v-89.6h-155.52v89.6zM934.4 794.752h89.6v-158.72h-89.6v158.72zM934.4 560.32h89.6v-158.72h-89.6v158.72zM934.4 325.888h89.6v-158.72h-89.6v158.72zM934.4 91.52h89.6v-155.52h-89.6v155.52zM0 960h89.6v-158.72h-89.6v158.72zM0 725.632h89.6v-158.72h-89.6v158.72zM0 491.136h89.6v-158.72h-89.6v158.72zM0 256.768h89.6v-155.52h-89.6v155.52zM659.2 586.368v194.432h-480v-480h194.432c23.552-107.84 119.296-188.672 234.176-188.672 132.544 0 240 107.456 240 240 0.064 114.88-80.768 210.688-188.608 234.24zM371.712 390.4h-102.912v300.8h300.8v-102.912c-101.696-16.384-181.504-96.192-197.888-197.888zM607.872 201.728c-82.944 0-150.4 67.456-150.4 150.4s67.456 150.4 150.4 150.4c82.944 0 150.4-67.456 150.4-150.4s-67.456-150.4-150.4-150.4z" />
<glyph unicode="&#xe980;" glyph-name="131" data-tags="ikone100--31" d="M934.4 958.528h89.6v-1024h-89.6v1024zM916.224 491.264v0.256h-0.128c-0.128 0.128-0.192 0.32-0.32 0.448l-300.736 300.736-63.36-63.36 237.76-237.76h-789.44v-89.664h789.504l-239.616-239.616 63.36-63.36 302.528 302.528c0.128 0.128 0.192 0.32 0.32 0.448h0.128v0.192c24.256 24.832 24.256 64.32 0 89.152z" />
<glyph unicode="&#xe981;" glyph-name="132" data-tags="ikone100--32" d="M0 960h89.6v-1024h-89.6v1024zM107.776 492.8v0.192h0.128c0.128 0.128 0.192 0.32 0.32 0.448l300.736 300.736 63.36-63.36-237.824-237.824h789.504v-89.6h-789.504l239.616-239.616-63.36-63.36-302.528 302.528c-0.128 0.128-0.192 0.32-0.32 0.448h-0.128v0.192c-24.256 24.832-24.256 64.384 0 89.216z" />
<glyph unicode="&#xe982;" glyph-name="133" data-tags="ikone100--33" d="M165.248 960h158.72v-89.6h-158.72v89.6zM399.68 960h158.72v-89.6h-158.72v89.6zM634.112 960h158.72v-89.6h-158.72v89.6zM868.48 960h155.52v-89.6h-155.52v89.6zM0 491.136h158.72v-89.6h-158.72v89.6zM234.368 491.136h158.72v-89.6h-158.72v89.6zM468.864 491.136h158.72v-89.6h-158.72v89.6zM703.232 491.136h155.52v-89.6h-155.52v89.6zM934.4 794.752h89.6v-158.72h-89.6v158.72zM934.4 560.32h89.6v-158.72h-89.6v158.72zM0 960h89.6v-158.72h-89.6v158.72zM0 725.632h89.6v-158.72h-89.6v158.72zM480.128 170.88l-144.128 144.128-63.36-63.36 81.216-81.216h-353.856v-89.6h353.792l-81.408-81.472 63.36-63.36 144.384 144.384c24.96 24.96 24.96 65.472 0 90.496zM665.6 315.008h358.4v-379.008h-358.4v379.008z" />
<glyph unicode="&#xe983;" glyph-name="134" data-tags="ikone100--34" d="M165.248 25.6h158.72v-89.6h-158.72v89.6zM399.68 25.6h158.72v-89.6h-158.72v89.6zM634.112 25.6h158.72v-89.6h-158.72v89.6zM868.48 25.6h155.52v-89.6h-155.52v89.6zM0 494.464h158.72v-89.6h-158.72v89.6zM234.368 494.464h158.72v-89.6h-158.72v89.6zM468.864 494.464h158.72v-89.6h-158.72v89.6zM703.232 494.464h155.52v-89.6h-155.52v89.6zM934.4 259.968h89.6v-158.72h-89.6v158.72zM934.4 494.4h89.6v-158.72h-89.6v158.72zM0 94.72h89.6v-158.72h-89.6v158.72zM0 329.152h89.6v-158.72h-89.6v158.72zM480.128 725.12l-144.192-144.128-63.36 63.36 81.216 81.216h-353.792v89.6h353.792l-81.408 81.472 63.36 63.36 144.32-144.384c25.024-24.96 25.024-65.472 0.064-90.496zM665.6 960h358.4v-379.008h-358.4v379.008z" />
<glyph unicode="&#xe984;" glyph-name="135" data-tags="ikone100--35" d="M480.128 170.88l-144.128 144.128-63.36-63.36 81.216-81.216h-353.856v-89.6h353.792l-81.408-81.472 63.36-63.36 144.384 144.384c24.96 24.96 24.96 65.472 0 90.496zM665.6 315.008h358.4v-379.008h-358.4v379.008zM934.4 870.4v-379.264h-844.8v379.264h844.8zM1024 960h-1024v-558.464h1024v558.464z" />
<glyph unicode="&#xe985;" glyph-name="136" data-tags="ikone100--36" d="M480.128 725.12l-144.192-144.128-63.36 63.36 81.216 81.216h-353.792v89.6h353.792l-81.408 81.472 63.36 63.36 144.32-144.384c25.024-24.96 25.024-65.472 0.064-90.496zM665.6 960h358.4v-379.008h-358.4v379.008zM934.4 404.864v-379.264h-844.8v379.264h844.8zM1024 494.464h-1024v-558.464h1024v558.464z" />
<glyph unicode="&#xe986;" glyph-name="137" data-tags="ikone100--37" d="M165.248 960h158.72v-89.6h-158.72v89.6zM399.68 960h158.72v-89.6h-158.72v89.6zM634.112 960h158.72v-89.6h-158.72v89.6zM868.48 960h155.52v-89.6h-155.52v89.6zM0 25.6h158.72v-89.6h-158.72v89.6zM234.368 25.6h158.72v-89.6h-158.72v89.6zM468.864 25.6h158.72v-89.6h-158.72v89.6zM703.232 25.6h155.52v-89.6h-155.52v89.6zM934.4 794.752h89.6v-158.72h-89.6v158.72zM934.4 560.32h89.6v-158.72h-89.6v158.72zM934.4 325.888h89.6v-158.72h-89.6v158.72zM934.4 91.52h89.6v-155.52h-89.6v155.52zM0 960h89.6v-158.72h-89.6v158.72zM0 725.632h89.6v-158.72h-89.6v158.72zM0 491.136h89.6v-158.72h-89.6v158.72zM0 256.768h89.6v-155.52h-89.6v155.52zM556.8 492.672v268.736h-89.6v-268.736h-268.8v-89.664h268.8v-268.416h89.6v268.416h268.8v89.664z" />
<glyph unicode="&#xe987;" glyph-name="138" data-tags="ikone100--38" d="M165.248 960h158.72v-89.6h-158.72v89.6zM399.68 960h158.72v-89.6h-158.72v89.6zM634.112 960h158.72v-89.6h-158.72v89.6zM868.48 960h155.52v-89.6h-155.52v89.6zM0 25.6h158.72v-89.6h-158.72v89.6zM234.368 25.6h158.72v-89.6h-158.72v89.6zM468.864 25.6h158.72v-89.6h-158.72v89.6zM703.232 25.6h155.52v-89.6h-155.52v89.6zM934.4 794.752h89.6v-158.72h-89.6v158.72zM934.4 560.32h89.6v-158.72h-89.6v158.72zM934.4 325.888h89.6v-158.72h-89.6v158.72zM934.4 91.52h89.6v-155.52h-89.6v155.52zM0 960h89.6v-158.72h-89.6v158.72zM0 725.632h89.6v-158.72h-89.6v158.72zM0 491.136h89.6v-158.72h-89.6v158.72zM0 256.768h89.6v-155.52h-89.6v155.52zM198.4 492.672h627.2v-89.6h-627.2v89.6z" />
<glyph unicode="&#xe988;" glyph-name="moveitem" data-tags="move item" d="M594.624 777.28l64.512 61.44c-25.664 26.944-54.976 49.92-87.168 68.352l-43.904-76.736c24.704-14.464 47.104-32.256 66.56-53.056zM382.272 870.4c23.104 0 45.248-3.392 66.688-8.512l19.84 85.568c-35.84 8.32-73.6 11.392-110.336 9.152l5.44-88.064c6.272 0.384 12.096 1.856 18.368 1.856zM280.64 851.2l-30.528 82.688c-34.816-12.864-67.52-30.72-97.216-52.992l52.992-70.656c22.72 17.152 47.68 30.912 74.752 40.96zM87.872 576c0 5.248 1.28 10.112 1.536 15.296l-88.832 4.928c-0.384-7.040-0.576-14.080-0.576-21.184 0-30.080 3.52-60.032 10.432-89.088l86.528 20.672c-5.504 22.272-9.088 45.312-9.088 69.376zM641.664 703.296c-210.752 0-382.272-171.52-382.272-382.336s171.52-382.272 382.272-382.272c210.816 0 382.336 171.456 382.336 382.272s-171.52 382.336-382.336 382.336zM641.664 35.712c-157.248 0-285.248 127.936-285.248 285.248s127.936 285.312 285.248 285.312c157.312 0 285.312-128 285.312-285.312s-128-285.248-285.312-285.248zM145.92 749.76l-71.040 52.608c-22.144-29.888-39.744-62.72-52.288-97.664l83.52-30.144c9.728 27.2 22.976 52.416 39.808 75.2zM129.152 428.16l-77.504-45.12c18.624-32.064 41.856-61.184 68.864-86.656l61.952 65.984c-20.864 19.264-38.72 41.344-53.312 65.792z" />
<glyph unicode="&#xe989;" d="M0 870.4h158.656v-89.6h-158.656v89.6zM289.472 780.8h158.784v89.6h-158.784v-89.6zM579.008 780.8h158.656v89.6h-158.656v-89.6zM868.48 870.4v-89.6h155.52v89.6h-155.52z" />
<glyph unicode="&#xe98a;" d="M934.4 601.6v-307.2h-844.8v307.2h844.8zM1024 691.2h-1024v-486.4h1024v486.4z" />
<glyph unicode="&#xe98b;" glyph-name="command" data-tags="COMMAND" d="M826.816-64c-108.736 0-197.184 89.984-197.184 200.576v110.848h-235.328v-110.848c0-110.592-88.448-200.576-197.12-200.576s-197.184 89.984-197.184 200.576 88.448 200.512 197.184 200.512h107.52v221.824h-107.52c-108.736 0-197.184 89.984-197.184 200.512s88.448 200.576 197.184 200.576 197.184-89.984 197.184-200.576v-110.848h235.392v110.848c-0.064 110.592 88.384 200.576 197.056 200.576s197.184-89.984 197.184-200.576-88.448-200.512-197.184-200.512h-107.52v-221.888h107.52c108.736 0 197.184-89.92 197.184-200.512s-88.448-200.512-197.184-200.512zM719.296 247.424v-110.848c0-61.184 48.192-110.912 107.52-110.912s107.584 49.728 107.584 110.912c0 61.12-48.256 110.848-107.584 110.848h-107.52zM197.184 247.424c-59.328 0-107.52-49.728-107.52-110.848 0-61.184 48.192-110.912 107.52-110.912s107.52 49.728 107.52 110.912v110.848h-107.52zM394.304 337.088h235.392v221.824h-235.392v-221.824zM719.296 648.576h107.52c59.328 0 107.584 49.728 107.584 110.848 0 61.184-48.256 110.912-107.584 110.912s-107.52-49.728-107.52-110.912v-110.848zM197.184 870.4c-59.328 0-107.584-49.792-107.584-110.976 0-61.12 48.192-110.848 107.52-110.848h107.52v110.848c0.064 61.184-48.192 110.976-107.456 110.976z" />
<glyph unicode="&#xe98c;" glyph-name="shift" data-tags="shift" d="M1024 228.352l-512 731.648-512-731.648h246.848v-292.352h530.304v292.352z" />
<glyph unicode="&#xe98d;" glyph-name="bold" data-tags="bold" d="M198.784 870.4h262.912c119.808 0 206.72-17.024 260.864-51.136s81.216-88.32 81.216-162.688c0-50.496-11.84-91.84-35.52-124.16-23.744-32.384-55.232-51.84-94.528-58.432v-5.76c53.568-11.968 92.096-34.304 115.904-67.008 23.68-32.768 35.52-76.288 35.52-130.56 0-77.056-27.84-137.152-83.52-180.288s-131.264-64.768-226.816-64.768h-316.032v844.8zM377.92 535.808h104.064c48.512 0 83.712 7.488 105.472 22.528s32.64 39.872 32.64 74.56c0 32.32-11.904 55.552-35.52 69.632-23.744 14.080-61.184 21.12-112.448 21.12h-94.208v-187.84zM377.92 393.728v-220.16h116.8c49.28 0 85.696 9.472 109.184 28.288 23.488 18.88 35.264 47.744 35.264 86.656 0 70.080-50.048 105.216-150.272 105.216h-110.976z" />
<glyph unicode="&#xe98e;" d="M0 115.2h158.656v-89.6h-158.656v89.6zM289.472 25.6h158.784v89.6h-158.784v-89.6zM579.008 25.6h158.656v89.6h-158.656v-89.6zM868.48 115.2v-89.6h155.52v89.6h-155.52z" />
<glyph unicode="&#xe98f;" d="M934.4 601.6v-307.2h-844.8v307.2h844.8zM1024 691.2h-1024v-486.4h1024v486.4z" />
<glyph unicode="&#xe990;" glyph-name="italic" data-tags="italic" d="M800.064 870.4l-8.96-39.296c-12.288-0.384-28.352-2.176-48.256-5.376s-34.496-6.144-44.032-8.96c-16.704-5.184-28.608-13.12-35.776-23.808-7.104-10.688-12.288-22.464-15.488-35.328l-143.232-617.28c-0.768-2.688-1.408-5.824-1.728-9.344-0.448-3.648-0.64-6.784-0.64-9.536 0-9.152 1.984-16.96 5.952-23.232 4.032-6.336 11.2-11.904 21.44-16.704 5.952-2.752 19.072-6.080 39.296-9.856s35.392-6.016 45.248-6.784l-8.96-39.296h-380.992l8.96 39.296c11.136 0.832 27.008 1.984 47.616 3.584 20.608 1.536 35.328 3.968 44.032 7.168 15.424 5.568 27.2 13.184 35.136 22.912s13.312 21.44 16.064 35.392l142.912 617.984c0.832 3.584 1.344 7.168 1.792 10.752 0.384 3.584 0.576 7.104 0.576 10.752 0 7.936-1.664 14.848-5.056 20.8-3.456 5.952-10.432 11.328-21.12 16.064-10.816 4.736-25.344 9.216-43.776 13.376-18.496 4.16-32.064 6.656-40.832 7.424l9.024 39.296h380.8z" />
<glyph unicode="&#xe991;" glyph-name="underline" data-tags="underline" d="M508.288 115.2c100.288 0 179.2 26.304 236.544 78.848 57.408 52.544 86.080 124.8 86.080 216.704v459.648h-96.96v-462.976c0-67.584-19.008-119.552-57.024-155.776s-92.096-54.336-162.432-54.336c-73.728 0-129.536 17.984-167.552 54.016s-57.024 87.68-57.024 154.944v464.128h-96.832v-457.472c0-92.672 27.456-165.44 82.368-218.368s132.544-79.36 232.832-79.36zM89.6 25.6h844.8v-89.6h-844.8v89.6z" />
<glyph unicode="&#xe992;" glyph-name="Strikethrough" data-tags="Strikethrough" d="M934.4 492.8h-361.728c-7.296 3.072-14.080 6.272-21.76 9.28-113.024 43.776-162.88 81.472-162.88 158.016 0 55.872 42.496 122.752 154.368 122.752 74.112 0 128.832-24.32 155.584-38.912l29.184 86.336c-36.48 20.672-97.28 40.128-181.12 40.128-159.232 0-265.024-94.848-265.024-222.464 0-65.024 27.008-115.072 73.792-155.136h-265.216v-89.6h437.888c88.192-38.848 124.288-81.216 124.288-150.272 0-82.624-63.168-139.776-171.328-139.776-72.96 0-142.208 24.32-189.632 53.504l-26.752-88.704c43.776-29.248 130.048-52.352 209.024-52.352 193.28 0 286.848 109.376 286.848 235.776 0 58.368-16.96 104-49.856 141.824h224.32v89.6z" />
<glyph unicode="&#xe993;" d="M144.704 691.2h158.784v-89.6h-158.784v89.6zM434.304 601.6h158.656v89.6h-158.656v-89.6zM723.776 691.2v-89.6h155.52v89.6h-155.52z" />
<glyph unicode="&#xe994;" d="M934.4 780.8v-665.6h-844.8v665.6h844.8zM1024 870.4h-1024v-844.8h1024v844.8z" />
<glyph unicode="&#xe995;" glyph-name="SUPERscript" data-tags="SUPERscript" d="M934.464 601.6v358.4h-179.264v-89.6h89.6v-268.8h-89.6v-89.6h268.8v89.6zM0 691.136h288v-755.136h89.6v755.136h288v89.6h-665.6z" />
<glyph unicode="&#xe996;" glyph-name="SUBscript" data-tags="SUBscript" d="M934.464 25.664v358.336h-179.264v-89.6h89.6v-268.736h-89.6v-89.664h268.8v89.664zM0 870.4h288v-755.136h89.6v755.136h288v89.6h-665.6z" />
<glyph unicode="&#xe997;" glyph-name="strike" data-tags="strike" d="M0 492.8h1024v-89.6h-1024v89.6z" />
<glyph unicode="&#xe998;" glyph-name="undo" data-tags="undo" d="M218.944 142.784c76.16-73.152 179.328-118.4 293.056-118.4 233.6 0 423.68 190.016 423.68 423.68 0 233.6-190.016 423.616-423.68 423.616-103.744 0-202.432-37.888-280.192-107.2h69.632c24.384 0 44.16-19.84 44.16-44.224s-19.84-44.16-44.16-44.16h-239.744v239.744c0 24.384 19.84 44.16 44.16 44.16s44.16-19.84 44.16-44.16v-106.496c95.872 96 226.496 150.656 361.984 150.656 282.368 0 512-229.696 512-512 0-282.368-229.696-512-512-512-137.408 0-262.080 54.72-354.176 143.104l61.12 63.68z" />
<glyph unicode="&#xe999;" glyph-name="redo" data-tags="redo" d="M805.056 142.784c-76.16-73.152-179.328-118.4-293.056-118.4-233.6 0-423.68 190.016-423.68 423.68 0 233.6 190.016 423.616 423.68 423.616 103.744 0 202.432-37.888 280.192-107.2h-69.632c-24.384 0-44.16-19.84-44.16-44.224s19.84-44.16 44.16-44.16h239.744v239.744c0 24.384-19.84 44.16-44.16 44.16s-44.224-19.84-44.224-44.16v-106.496c-95.808 96-226.496 150.656-361.92 150.656-282.304 0-512-229.696-512-512 0-282.368 229.696-512 512-512 137.408 0 262.080 54.72 354.176 143.104l-61.12 63.68z" />
<glyph unicode="&#xe99a;" glyph-name="clear_format" data-tags="clear_format" d="M300.352 25.728h422.784v-89.728h-422.784v89.728zM1015.68 941.824c-7.872 11.136-20.416 17.536-33.792 18.176h-344.64c-16-1.088-29.632-10.88-36.48-25.408l-145.024-444.608-133.504 364.992h-103.808l-218.432-597.248h100.672l57.088 165.184h223.168l27.52-77.888-56.768-174.016c-3.072-12.672-1.152-26.112 6.4-36.864 8.256-11.712 21.568-18.624 35.712-18.624h339.84c19.008 0 35.776 12.352 41.792 30.72l246.336 755.2c4.48 13.632 2.176 28.672-6.080 40.384zM185.728 506.688l52.736 155.008c13.824 39.616 24.32 76.032 31.552 109.44 2.624-10.88 7.488-27.968 14.592-51.264 7.040-23.296 12.608-40.384 16.576-51.264l54.72-161.92h-170.176zM701.824 205.248h-246.976l101.12 322.88 246.464-1.344-100.608-321.536z" />
<glyph unicode="&#xe99b;" d="M934.4 780.8v-665.6h-844.8v665.6h844.8zM1024 870.4h-1024v-844.8h1024v844.8z" />
<glyph unicode="&#xe99c;" d="M144.704 294.4h158.784v-89.6h-158.784v89.6zM434.304 204.8h158.72v89.6h-158.72v-89.6zM723.776 294.4v-89.6h155.52v89.6h-155.52z" />
<glyph unicode="&#xe99d;" glyph-name="Pin" data-tags="Pin" d="M1012.416 681.92l-265.664 266.176c-15.488 15.424-40.448 15.936-56.704 1.408l-190.848-177.28c-29.12-28.928-71.040-36.992-121.6-46.72-22.080-4.928-42.24-15.936-58.24-32-22.464-22.208-34.88-51.968-34.88-83.712 0.064-31.68 12.48-61.504 35.008-83.712l108.352-107.648-427.84-424.768 58.176-57.664 427.776 424.832 117.504-116.8c22.528-22.528 52.544-34.752 84.416-34.752 31.936 0 61.888 12.288 84.416 34.752 16.448 16.256 27.392 36.608 32.768 61.312 8.896 45.888 20.608 91.904 46.208 117.248 1.664 1.6 3.136 3.328 4.416 5.184l160.832 202.112c11.328 16.064 9.664 37.952-4.096 52.032zM790.4 477.696c-39.296-40.832-55.040-99.456-65.92-155.968-1.92-8.448-5.12-14.72-10.432-20.032-14.016-14.080-38.208-14.144-52.544 0.128l-283.968 282.048c-6.912 6.912-10.816 16.128-10.816 25.984s3.84 19.072 10.816 25.984c4.992 5.056 11.264 8.448 17.664 9.92 54.016 10.368 115.264 22.144 160.704 67.328l160.384 149.76 213.376-213.312-139.264-171.84z" />
</font>
</defs>
</svg>
