{
  "asset": {
    "version": "2.0",
    "generator": "THREE.GLTFExporter"
  },
  "scenes": [
    {
      "name": "Scene",
      "nodes": [
        2,
        3
      ]
    }
  ],
  "scene": 0,
  "nodes": [
    {
      "matrix": [
        0.9977883376520092,
        0,
        0.0664713020414891,
        0,
        -0.0664713020414891,
        -1.6943157366000605e-7,
        0.9977885070835829,
        0,
        0,
        -1.0000001694315737,
        -1.6943157366000605e-7,
        0,
        0,
        0,
        0,
        1
      ],
      "name": "J&G_Logo",
      "extras": {
        "name": "J&G Logo"
      },
      "mesh": 0
    },
    {
      "matrix": [
        1,
        0,
        0,
        0,
        0,
        1,
        0,
        0,
        0,
        0,
        1,
        0,
        0,
        -0.5706587433815002,
        0,
        1
      ],
      "name": "Background",
      "extras": {
        "name": "Background"
      },
      "mesh": 1
    },
    {
      "name": "J&G Logo_v17.glb",
      "children": [
        0,
        1
      ]
    },
    {
      "matrix": [
        1,
        0,
        0,
        0,
        0,
        1,
        0,
        0,
        0,
        0,
        1,
        0,
        0.20056096543721758,
        2.1286045371102196,
        6.957282812978013,
        1
      ],
      "name": "SpotLight",
      "extensions": {
        "KHR_lights_punctual": {
          "light": 0
        }
      }
    }
  ],
  "bufferViews": [
    {
      "buffer": 0,
      "byteOffset": 0,
      "byteLength": 6432,
      "target": 34962,
      "byteStride": 12
    },
    {
      "buffer": 0,
      "byteOffset": 6432,
      "byteLength": 6432,
      "target": 34962,
      "byteStride": 12
    },
    {
      "buffer": 0,
      "byteOffset": 12864,
      "byteLength": 4288,
      "target": 34962,
      "byteStride": 8
    },
    {
      "buffer": 0,
      "byteOffset": 17152,
      "byteLength": 4176,
      "target": 34963
    },
    {
      "buffer": 0,
      "byteOffset": 21328,
      "byteLength": 468,
      "target": 34962,
      "byteStride": 12
    },
    {
      "buffer": 0,
      "byteOffset": 21796,
      "byteLength": 468,
      "target": 34962,
      "byteStride": 12
    },
    {
      "buffer": 0,
      "byteOffset": 22264,
      "byteLength": 312,
      "target": 34962,
      "byteStride": 8
    },
    {
      "buffer": 0,
      "byteOffset": 22576,
      "byteLength": 288,
      "target": 34963
    }
  ],
  "buffers": [
    {
      "byteLength": 22864,
      "uri": "data:application/octet-stream;base64,"
    }
  ],
  "accessors": [
    {
      "bufferView": 0,
      "componentType": 5126,
      "count": 536,
      "max": [
        0.5934136509895325,
        0.061075180768966675,
        0.37254807353019714
      ],
      "min": [
        -0.7509310841560364,
        -0.06107508763670921,
        -0.3400892913341522
      ],
      "type": "VEC3"
    },
    {
      "bufferView": 1,
      "componentType": 5126,
      "count": 536,
      "max": [
        0.9808038473129272,
        0.9974364638328552,
        0.9808648824691772
      ],
      "min": [
        -0.9808343648910522,
        -0.9974364638328552,
        -0.9807733297348022
      ],
      "type": "VEC3"
    },
    {
      "bufferView": 2,
      "componentType": 5126,
      "count": 536,
      "max": [
        0.9712932109832764,
        0.9780294895172119
      ],
      "min": [
        0.6030293703079224,
        0.036468446254730225
      ],
      "type": "VEC2"
    },
    {
      "bufferView": 3,
      "componentType": 5123,
      "count": 2088,
      "max": [
        535
      ],
      "min": [
        0
      ],
      "type": "SCALAR"
    },
    {
      "bufferView": 4,
      "componentType": 5126,
      "count": 39,
      "max": [
        10.88291072845459,
        6.7283101081848145,
        2.000000238418579
      ],
      "min": [
        -10.88291072845459,
        0,
        -6.105824947357178
      ],
      "type": "VEC3"
    },
    {
      "bufferView": 5,
      "componentType": 5126,
      "count": 39,
      "max": [
        0,
        1,
        0.9023407697677612
      ],
      "min": [
        0,
        0.430982381105423,
        0
      ],
      "type": "VEC3"
    },
    {
      "bufferView": 6,
      "componentType": 5126,
      "count": 39,
      "max": [
        0.567817747592926,
        1
      ],
      "min": [
        0,
        -1.1920928955078125e-7
      ],
      "type": "VEC2"
    },
    {
      "bufferView": 7,
      "componentType": 5123,
      "count": 144,
      "max": [
        38
      ],
      "min": [
        0
      ],
      "type": "SCALAR"
    }
  ],
  "materials": [
    {
      "pbrMetallicRoughness": {
        "metallicFactor": 0,
        "roughnessFactor": 0.16
      },
      "doubleSided": true,
      "name": "J&G Material"
    },
    {
      "pbrMetallicRoughness": {
        "metallicFactor": 0,
        "roughnessFactor": 1
      },
      "doubleSided": true,
      "name": "CityStreetAsphaltGenericCracked002_4K_box_obj"
    }
  ],
  "meshes": [
    {
      "primitives": [
        {
          "mode": 4,
          "attributes": {
            "POSITION": 0,
            "NORMAL": 1,
            "TEXCOORD_0": 2
          },
          "indices": 3,
          "material": 0
        }
      ]
    },
    {
      "primitives": [
        {
          "mode": 4,
          "attributes": {
            "POSITION": 4,
            "NORMAL": 5,
            "TEXCOORD_0": 6
          },
          "indices": 7,
          "material": 1
        }
      ]
    }
  ],
  "extensions": {
    "KHR_lights_punctual": {
      "lights": [
        {
          "name": "SpotLight",
          "color": [
            1,
            1,
            1
          ],
          "intensity": 0.22,
          "type": "spot",
          "range": 11.22,
          "spot": {
            "innerConeAngle": 0,
            "outerConeAngle": 0.274
          }
        }
      ]
    }
  },
  "extensionsUsed": [
    "KHR_lights_punctual"
  ]
}