<svg width="42" height="42" viewBox="0 0 42 42" fill="none" xmlns="http://www.w3.org/2000/svg">
<path d="M9.08603 9.08605L7.22392 7.22394C7.21613 7.23214 7.20809 7.2392 7.2003 7.24699C3.54123 10.9058 1.48081 15.8653 1.47004 21.0399C1.45928 26.2144 3.49906 31.1825 7.14288 34.8565L9.00499 32.9944C5.84617 29.8126 4.08023 25.5066 4.09543 21.0231C4.11063 16.5396 5.90572 12.2457 9.08603 9.08539V9.08605Z" fill="#F1F1F1" fill-opacity="0.35"/>
<path d="M34.8689 7.2473C34.8361 7.21449 34.8019 7.18225 34.7686 7.14935L32.9065 9.01146C34.5005 10.5754 35.7689 12.4397 36.6386 14.4965C37.5082 16.5534 37.9619 18.7621 37.9733 20.9952C37.9848 23.2283 37.5538 25.4416 36.7052 27.5072C35.8567 29.5729 34.6074 31.45 33.0295 33.0302L34.8917 34.8923C38.5505 31.2213 40.6031 26.2483 40.5988 21.0653C40.5945 15.8822 38.5336 10.9127 34.8686 7.24779L34.8689 7.2473Z" fill="#F1F1F1" fill-opacity="0.35"/>
<path d="M12.5937 12.5936C10.3451 14.8244 9.07358 17.8564 9.05837 21.0238C9.04315 24.1912 10.2855 27.2352 12.5126 29.4875L14.3679 27.6322C12.6336 25.8715 11.6683 23.4951 11.6835 21.0238C11.6987 18.5525 12.6932 16.1881 14.449 14.4489L12.5937 12.5936Z" fill="#F1F1F1" fill-opacity="0.35"/>
<path d="M27.5439 14.3741C28.4326 15.2344 29.1414 16.2627 29.6293 17.3993C30.1172 18.5359 30.3743 19.7581 30.3857 20.995C30.3972 22.2318 30.1627 23.4586 29.696 24.604C29.2293 25.7494 28.5395 26.7907 27.6669 27.6673L29.5231 29.5231C30.6397 28.4031 31.523 27.0726 32.1218 25.6088C32.7206 24.145 33.0231 22.577 33.0116 20.9955C33.0002 19.414 32.6751 17.8504 32.0551 16.3955C31.4352 14.9405 30.5327 13.623 29.4 12.5192L27.5439 14.3741Z" fill="#F1F1F1" fill-opacity="0.35"/>
<path d="M24.18 17.738C23.4107 17.0162 22.416 16.5817 21.3636 16.5076C20.3113 16.4336 19.2656 16.7246 18.4028 17.3316C17.5399 17.9386 16.9127 18.8245 16.6268 19.8399C16.3409 20.8554 16.4138 21.9384 16.8331 22.9064C17.2525 23.8744 17.9927 24.6682 18.9291 25.1542C19.8655 25.6401 20.9407 25.7884 21.9737 25.5741C23.0066 25.3598 23.9341 24.7959 24.5998 23.9776C25.2656 23.1592 25.6289 22.1364 25.6285 21.0815C25.629 20.4547 25.5006 19.8345 25.2514 19.2593C25.0023 18.6842 24.6376 18.1663 24.18 17.738ZM21.0348 23.0502C20.6454 23.0502 20.2648 22.9348 19.941 22.7184C19.6172 22.5021 19.3649 22.1946 19.2159 21.8349C19.0669 21.4751 19.0279 21.0793 19.1039 20.6974C19.1798 20.3155 19.3673 19.9647 19.6427 19.6894C19.918 19.414 20.2688 19.2265 20.6507 19.1505C21.0326 19.0746 21.4285 19.1136 21.7882 19.2626C22.1479 19.4116 22.4554 19.6639 22.6717 19.9877C22.8881 20.3114 23.0035 20.6921 23.0035 21.0815C23.0035 21.34 22.9526 21.596 22.8537 21.8349C22.7547 22.0737 22.6097 22.2908 22.4269 22.4736C22.2441 22.6564 22.0271 22.8014 21.7882 22.9004C21.5493 22.9993 21.2933 23.0502 21.0348 23.0502Z" fill="#F1F1F1" fill-opacity="0.35"/>
</svg>
