<svg width="40" height="28" viewBox="0 0 40 28" fill="none" xmlns="http://www.w3.org/2000/svg">
<path d="M8.08603 2.08605L6.22392 0.223938C6.21613 0.232141 6.20809 0.239196 6.2003 0.246989C2.54123 3.90584 0.480806 8.86535 0.470044 14.0399C0.459282 19.2144 2.49906 24.1825 6.14288 27.8565L8.00499 25.9944C4.84617 22.8126 3.08023 18.5066 3.09543 14.0231C3.11063 9.53962 4.90572 5.24569 8.08603 2.08539V2.08605Z" fill="#171D1A"/>
<path d="M33.8689 0.247298C33.8361 0.214486 33.8019 0.182248 33.7686 0.149353L31.9065 2.01146C33.5005 3.57545 34.769 5.43967 35.6386 7.49652C36.5083 9.55336 36.9619 11.7621 36.9733 13.9952C36.9848 16.2283 36.5538 18.4416 35.7053 20.5072C34.8567 22.5729 33.6075 24.45 32.0296 26.0302L33.8917 27.8923C37.5505 24.2213 39.6031 19.2483 39.5988 14.0653C39.5945 8.88225 37.5336 3.91273 33.8686 0.24779L33.8689 0.247298Z" fill="#171D1A"/>
<path d="M11.5937 5.59363C9.34507 7.82442 8.07358 10.8564 8.05837 14.0238C8.04315 17.1912 9.28547 20.2352 11.5126 22.4875L13.3679 20.6322C11.6336 18.8715 10.6683 16.4951 10.6835 14.0238C10.6987 11.5525 11.6932 9.18808 13.449 7.44893L11.5937 5.59363Z" fill="#171D1A"/>
<path d="M26.5439 7.37412C27.4326 8.23441 28.1414 9.26272 28.6293 10.3993C29.1172 11.5359 29.3743 12.7581 29.3857 13.995C29.3972 15.2318 29.1627 16.4586 28.696 17.604C28.2293 18.7494 27.5395 19.7907 26.6669 20.6673L28.5231 22.5231C29.6397 21.403 30.523 20.0726 31.1218 18.6088C31.7206 17.145 32.0231 15.577 32.0116 13.9955C32.0002 12.414 31.6751 10.8504 31.0551 9.39546C30.4352 7.94049 29.5327 6.62297 28.4 5.51923L26.5439 7.37412Z" fill="#171D1A"/>
<path d="M23.18 10.738C22.4107 10.0162 21.416 9.58166 20.3636 9.50765C19.3113 9.43363 18.2656 9.72463 17.4028 10.3316C16.5399 10.9386 15.9127 11.8245 15.6268 12.8399C15.3409 13.8554 15.4138 14.9384 15.8331 15.9064C16.2525 16.8744 16.9927 17.6682 17.9291 18.1542C18.8655 18.6401 19.9407 18.7884 20.9737 18.5741C22.0066 18.3598 22.9341 17.7959 23.5998 16.9776C24.2656 16.1592 24.6289 15.1364 24.6285 14.0815C24.629 13.4547 24.5006 12.8345 24.2514 12.2593C24.0023 11.6842 23.6376 11.1663 23.18 10.738V10.738ZM20.0348 16.0502C19.6454 16.0502 19.2648 15.9348 18.941 15.7184C18.6172 15.5021 18.3649 15.1946 18.2159 14.8349C18.0669 14.4751 18.0279 14.0793 18.1039 13.6974C18.1798 13.3155 18.3673 12.9647 18.6427 12.6894C18.918 12.414 19.2688 12.2265 19.6507 12.1505C20.0326 12.0746 20.4285 12.1136 20.7882 12.2626C21.1479 12.4116 21.4554 12.6639 21.6717 12.9877C21.8881 13.3114 22.0035 13.6921 22.0035 14.0815C22.0035 14.34 21.9526 14.596 21.8537 14.8349C21.7547 15.0737 21.6097 15.2908 21.4269 15.4736C21.2441 15.6564 21.0271 15.8014 20.7882 15.9004C20.5493 15.9993 20.2933 16.0502 20.0348 16.0502V16.0502Z" fill="#171D1A"/>
</svg>
