<svg width="533" height="609" viewBox="0 0 533 609" fill="none" xmlns="http://www.w3.org/2000/svg">
<path d="M14.3621 372.746L49.6425 330.141L113.858 362.303L166.978 391.165L206.428 367.27L213.063 324.702L198.233 273.758L132.64 63.5986L147.144 56.7456L166.434 49.5662L255.595 244.279L262.303 243.264L223.578 33.6846L221.512 13.3069L251.607 13.0894L265.204 13.8146L327.316 240.145H329.383L331.704 47.3182L331.196 32.5969L361.545 31.7267L374.78 138.003L390.661 261.828L495.269 110.156L522.79 124.841L443.963 284.309L449.583 349.177L460.569 437.505L449.547 543.708L299.796 592.477L243.666 546.428L137.027 452.625L14.3621 372.746Z" stroke="#171D1A" stroke-width="0.81" stroke-miterlimit="10"/>
<path d="M206.825 375.9C211.291 375.9 214.911 372.28 214.911 367.814C214.911 363.349 211.291 359.729 206.825 359.729C202.359 359.729 198.739 363.349 198.739 367.814C198.739 372.28 202.359 375.9 206.825 375.9Z" fill="#171D1A"/>
<path d="M297.725 608.25C306.276 608.25 313.208 601.318 313.208 592.767C313.208 584.216 306.276 577.285 297.725 577.285C289.174 577.285 282.242 584.216 282.242 592.767C282.242 601.318 289.174 608.25 297.725 608.25Z" fill="#171D1A"/>
<path d="M163.027 403.603C171.578 403.603 178.51 396.671 178.51 388.12C178.51 379.569 171.578 372.637 163.027 372.637C154.476 372.637 147.544 379.569 147.544 388.12C147.544 396.671 154.476 403.603 163.027 403.603Z" fill="#171D1A"/>
<path d="M52.1459 346.457C60.6968 346.457 67.6285 339.525 67.6285 330.975C67.6285 322.424 60.6968 315.492 52.1459 315.492C43.595 315.492 36.6631 322.424 36.6631 330.975C36.6631 339.525 43.595 346.457 52.1459 346.457Z" fill="#171D1A"/>
<path d="M15.4826 388.265C24.0335 388.265 30.9654 381.333 30.9654 372.782C30.9654 364.231 24.0335 357.299 15.4826 357.299C6.9317 357.299 0 364.231 0 372.782C0 381.333 6.9317 388.265 15.4826 388.265Z" fill="#171D1A"/>
<path d="M447.804 556.253C456.355 556.253 463.287 549.321 463.287 540.77C463.287 532.219 456.355 525.288 447.804 525.288C439.253 525.288 432.322 532.219 432.322 540.77C432.322 549.321 439.253 556.253 447.804 556.253Z" fill="#171D1A"/>
<path d="M458.902 451.356C467.453 451.356 474.385 444.424 474.385 435.873C474.385 427.322 467.453 420.391 458.902 420.391C450.351 420.391 443.419 427.322 443.419 435.873C443.419 444.424 450.351 451.356 458.902 451.356Z" fill="#171D1A"/>
<path d="M211.609 333.658C220.16 333.658 227.092 326.727 227.092 318.176C227.092 309.625 220.16 302.693 211.609 302.693C203.058 302.693 196.126 309.625 196.126 318.176C196.126 326.727 203.058 333.658 211.609 333.658Z" fill="#171D1A"/>
<path d="M446.791 303.272C455.342 303.272 462.274 296.34 462.274 287.789C462.274 279.238 455.342 272.306 446.791 272.306C438.241 272.306 431.309 279.238 431.309 287.789C431.309 296.34 438.241 303.272 446.791 303.272Z" fill="#171D1A"/>
<path d="M387.29 274.845C395.841 274.845 402.772 267.913 402.772 259.362C402.772 250.811 395.841 243.879 387.29 243.879C378.739 243.879 371.807 250.811 371.807 259.362C371.807 267.913 378.739 274.845 387.29 274.845Z" fill="#171D1A"/>
<path d="M259.369 260.341C267.92 260.341 274.852 253.409 274.852 244.858C274.852 236.307 267.92 229.375 259.369 229.375C250.818 229.375 243.886 236.307 243.886 244.858C243.886 253.409 250.818 260.341 259.369 260.341Z" fill="#171D1A"/>
<path d="M327.242 253.923C335.793 253.923 342.725 246.991 342.725 238.44C342.725 229.889 335.793 222.958 327.242 222.958C318.691 222.958 311.759 229.889 311.759 238.44C311.759 246.991 318.691 253.923 327.242 253.923Z" fill="#171D1A"/>
<path d="M132.026 72.1912C136.492 72.1912 140.112 68.5711 140.112 64.1054C140.112 59.6397 136.492 56.0195 132.026 56.0195C127.561 56.0195 123.94 59.6397 123.94 64.1054C123.94 68.5711 127.561 72.1912 132.026 72.1912Z" fill="#171D1A"/>
<path d="M331.013 41.2629C335.479 41.2629 339.099 37.6429 339.099 33.1772C339.099 28.7115 335.479 25.0913 331.013 25.0913C326.548 25.0913 322.927 28.7115 322.927 33.1772C322.927 37.6429 326.548 41.2629 331.013 41.2629Z" fill="#171D1A"/>
<path d="M524.781 133.832C529.247 133.832 532.867 130.212 532.867 125.747C532.867 121.281 529.247 117.661 524.781 117.661C520.315 117.661 516.695 121.281 516.695 125.747C516.695 130.212 520.315 133.832 524.781 133.832Z" fill="#171D1A"/>
<path d="M265.024 22.1898C269.49 22.1898 273.11 18.5696 273.11 14.1039C273.11 9.63825 269.49 6.01807 265.024 6.01807C260.559 6.01807 256.938 9.63825 256.938 14.1039C256.938 18.5696 260.559 22.1898 265.024 22.1898Z" fill="#171D1A"/>
<path d="M164.875 67.5133C173.426 67.5133 180.358 60.5814 180.358 52.0305C180.358 43.4797 173.426 36.5479 164.875 36.5479C156.324 36.5479 149.393 43.4797 149.393 52.0305C149.393 60.5814 156.324 67.5133 164.875 67.5133Z" fill="#171D1A"/>
<path d="M494.871 124.694C503.422 124.694 510.354 117.763 510.354 109.212C510.354 100.661 503.422 93.729 494.871 93.729C486.32 93.729 479.388 100.661 479.388 109.212C479.388 117.763 486.32 124.694 494.871 124.694Z" fill="#171D1A"/>
<path d="M365.095 48.0065C373.646 48.0065 380.577 41.0747 380.577 32.5238C380.577 23.9729 373.646 17.041 365.095 17.041C356.544 17.041 349.612 23.9729 349.612 32.5238C349.612 41.0747 356.544 48.0065 365.095 48.0065Z" fill="#171D1A"/>
<path d="M222.706 30.9654C231.257 30.9654 238.189 24.0336 238.189 15.4827C238.189 6.93181 231.257 0 222.706 0C214.155 0 207.223 6.93181 207.223 15.4827C207.223 24.0336 214.155 30.9654 222.706 30.9654Z" fill="#171D1A"/>
</svg>
