<?xml version="1.0" encoding="UTF-8" standalone="no"?><!DOCTYPE svg PUBLIC "-//W3C//DTD SVG 1.1//EN" "http://www.w3.org/Graphics/SVG/1.1/DTD/svg11.dtd"><svg width="100%" height="100%" viewBox="0 0 87 82" version="1.1" xmlns="http://www.w3.org/2000/svg" xmlns:xlink="http://www.w3.org/1999/xlink" xml:space="preserve" xmlns:serif="http://www.serif.com/" style="fill-rule:evenodd;clip-rule:evenodd;stroke-linecap:round;stroke-linejoin:round;stroke-miterlimit:1.5;"><g><path d="M54.912,64.115c-4.134,-4.078 -8.753,-7.189 -12.637,-7.376c6.237,-3.495 10.457,-10.17 10.457,-17.822c-0,-11.267 -9.148,-20.415 -20.415,-20.415c-7.905,0 -14.766,4.503 -18.157,11.082" style="fill:none;stroke:#fff;stroke-width:1px;"/><path d="M12.079,36.229c0,-0 0.235,0.235 0,-0c-0.116,0.879 -0.176,1.776 -0.176,2.688c-0,6.063 2.649,11.512 6.851,15.252l-18.254,0.16l0.523,-4.556c1.095,-4.256 5.818,-10.095 11.056,-13.544Z" style="fill:none;stroke:#fff;stroke-width:1px;"/><path d="M12.079,36.229c0.312,-2.367 1.03,-4.607 2.081,-6.645" style="fill:none;stroke:#fff;stroke-width:1px;"/><path d="M14.16,29.584c-2.713,-3.086 -4.36,-7.133 -4.36,-11.561c0,-9.671 7.852,-17.523 17.523,-17.523c8.939,0 16.323,6.708 17.39,15.361c3.187,-3.304 7.66,-5.361 12.61,-5.361c9.671,0 17.523,7.852 17.523,17.523c-0,6.568 -3.622,12.297 -8.976,15.297c7.676,0.37 18.7,14.046 20.272,20.523l-31.23,0.272c5.384,5.312 9.944,12.265 10.981,16.534l-64.825,0.566l0.609,-5.307c1.83,-7.111 12.352,-18.016 20.873,-19.064c-1.368,-0.747 -2.641,-1.647 -3.796,-2.675" style="fill:none;stroke:#fff;stroke-width:1px;"/></g></svg>