<svg width="508" height="415" viewBox="0 0 508 415" fill="none" xmlns="http://www.w3.org/2000/svg">
<path d="M42.0208 290.479L9.48462 208.81L30.5376 130.969L214.271 17.4216L324.648 13.5938L436.31 80.5799L495.641 182.016L447.794 296.849L424.827 331.956L381.436 328.757L386.549 393.201L349.528 401.485L256.376 308.99L220.013 298.763L184.277 324.929L42.0208 290.479Z" stroke="#171D1A" stroke-width="0.81" stroke-miterlimit="10"/>
<path d="M31.1946 142.052C37.9311 142.052 43.3921 136.591 43.3921 129.854C43.3921 123.118 37.9311 117.657 31.1946 117.657C24.4581 117.657 18.9971 123.118 18.9971 129.854C18.9971 136.591 24.4581 142.052 31.1946 142.052Z" fill="#171D1A"/>
<path d="M214.354 29.9614C221.09 29.9614 226.551 24.5004 226.551 17.7639C226.551 11.0274 221.09 5.56641 214.354 5.56641C207.617 5.56641 202.157 11.0274 202.157 17.7639C202.157 24.5004 207.617 29.9614 214.354 29.9614Z" fill="#171D1A"/>
<path d="M327.93 24.9623C334.666 24.9623 340.127 19.5013 340.127 12.7649C340.127 6.02839 334.666 0.567383 327.93 0.567383C321.193 0.567383 315.732 6.02839 315.732 12.7649C315.732 19.5013 321.193 24.9623 327.93 24.9623Z" fill="#171D1A"/>
<path d="M436.507 91.5194C443.243 91.5194 448.704 86.0585 448.704 79.322C448.704 72.5855 443.243 67.1245 436.507 67.1245C429.77 67.1245 424.309 72.5855 424.309 79.322C424.309 86.0585 429.77 91.5194 436.507 91.5194Z" fill="#171D1A"/>
<path d="M495.552 193.584C502.288 193.584 507.749 188.123 507.749 181.386C507.749 174.65 502.288 169.189 495.552 169.189C488.815 169.189 483.354 174.65 483.354 181.386C483.354 188.123 488.815 193.584 495.552 193.584Z" fill="#171D1A"/>
<path d="M427.999 343.696C434.735 343.696 440.196 338.235 440.196 331.499C440.196 324.762 434.735 319.301 427.999 319.301C421.262 319.301 415.801 324.762 415.801 331.499C415.801 338.235 421.262 343.696 427.999 343.696Z" fill="#171D1A"/>
<path d="M381.462 342.211C388.199 342.211 393.66 336.75 393.66 330.013C393.66 323.277 388.199 317.816 381.462 317.816C374.726 317.816 369.265 323.277 369.265 330.013C369.265 336.75 374.726 342.211 381.462 342.211Z" fill="#171D1A"/>
<path d="M390.975 401.256C397.711 401.256 403.172 395.795 403.172 389.058C403.172 382.322 397.711 376.861 390.975 376.861C384.238 376.861 378.777 382.322 378.777 389.058C378.777 395.795 384.238 401.256 390.975 401.256Z" fill="#171D1A"/>
<path d="M350.442 414.252C357.178 414.252 362.639 408.791 362.639 402.055C362.639 395.318 357.178 389.857 350.442 389.857C343.705 389.857 338.245 395.318 338.245 402.055C338.245 408.791 343.705 414.252 350.442 414.252Z" fill="#171D1A"/>
<path d="M260.372 324.671C267.108 324.671 272.569 319.21 272.569 312.474C272.569 305.737 267.108 300.276 260.372 300.276C253.635 300.276 248.174 305.737 248.174 312.474C248.174 319.21 253.635 324.671 260.372 324.671Z" fill="#171D1A"/>
<path d="M220.352 311.188C227.088 311.188 232.549 305.727 232.549 298.99C232.549 292.254 227.088 286.793 220.352 286.793C213.615 286.793 208.154 292.254 208.154 298.99C208.154 305.727 213.615 311.188 220.352 311.188Z" fill="#171D1A"/>
<path d="M183.334 334.699C190.07 334.699 195.531 329.238 195.531 322.501C195.531 315.765 190.07 310.304 183.334 310.304C176.597 310.304 171.136 315.765 171.136 322.501C171.136 329.238 176.597 334.699 183.334 334.699Z" fill="#171D1A"/>
<path d="M44.2166 302.162C50.953 302.162 56.4141 296.701 56.4141 289.965C56.4141 283.228 50.953 277.767 44.2166 277.767C37.4801 277.767 32.019 283.228 32.019 289.965C32.019 296.701 37.4801 302.162 44.2166 302.162Z" fill="#171D1A"/>
<path d="M12.1974 221.607C18.9338 221.607 24.3949 216.146 24.3949 209.409C24.3949 202.673 18.9338 197.212 12.1974 197.212C5.46087 197.212 0 202.673 0 209.409C0 216.146 5.46087 221.607 12.1974 221.607Z" fill="#171D1A"/>
</svg>
