<svg width="539" height="526" viewBox="0 0 539 526" fill="none" xmlns="http://www.w3.org/2000/svg">
<path d="M12.6733 132.386L68.9331 121.147L92.8443 252.866L37.4124 262.895L12.6733 132.386Z" stroke="#F1F1F1" stroke-opacity="0.3" stroke-width="0.84" stroke-miterlimit="10"/>
<path d="M407.253 77.3684L75.6489 152.413" stroke="#F1F1F1" stroke-opacity="0.3" stroke-width="0.84" stroke-miterlimit="10"/>
<path d="M321.069 203.006L285.664 165.308L217.146 214.691L231.761 248.822L245.611 278.56L296.49 280.247L322.088 202.878" stroke="#F1F1F1" stroke-opacity="0.3" stroke-width="0.84" stroke-miterlimit="10"/>
<path d="M427.38 188.741L322.47 203.005" stroke="#F1F1F1" stroke-opacity="0.3" stroke-width="0.84" stroke-miterlimit="10"/>
<path d="M216.442 215.646L90.7415 231.088" stroke="#F1F1F1" stroke-opacity="0.3" stroke-width="0.84" stroke-miterlimit="10"/>
<path d="M399.009 30.9786L434.095 223.382L525.41 206.508L492.393 13.4353L399.009 30.9786Z" stroke="#F1F1F1" stroke-opacity="0.3" stroke-width="0.84" stroke-miterlimit="10"/>
<path d="M130.764 512.672L245.608 278.368" stroke="#F1F1F1" stroke-opacity="0.3" stroke-width="0.84" stroke-miterlimit="10"/>
<path d="M408.813 514.775L295.084 280.248" stroke="#F1F1F1" stroke-opacity="0.3" stroke-width="0.84" stroke-miterlimit="10"/>
<path d="M88.7388 236.5C92.8359 236.5 96.1573 233.178 96.1573 229.081C96.1573 224.984 92.8359 221.663 88.7388 221.663C84.6417 221.663 81.3203 224.984 81.3203 229.081C81.3203 233.178 84.6417 236.5 88.7388 236.5Z" fill="#F1F1F1" fill-opacity="0.3"/>
<path d="M427.757 194.44C431.854 194.44 435.175 191.119 435.175 187.022C435.175 182.925 431.854 179.603 427.757 179.603C423.66 179.603 420.338 182.925 420.338 187.022C420.338 191.119 423.66 194.44 427.757 194.44Z" fill="#F1F1F1" fill-opacity="0.3"/>
<path d="M74.9834 159.736C79.0805 159.736 82.402 156.415 82.402 152.317C82.402 148.22 79.0805 144.899 74.9834 144.899C70.8863 144.899 67.5649 148.22 67.5649 152.317C67.5649 156.415 70.8863 159.736 74.9834 159.736Z" fill="#F1F1F1" fill-opacity="0.3"/>
<path d="M298.076 294.129C305.585 294.129 311.672 288.042 311.672 280.534C311.672 273.025 305.585 266.938 298.076 266.938C290.568 266.938 284.481 273.025 284.481 280.534C284.481 288.042 290.568 294.129 298.076 294.129Z" fill="#F1F1F1" fill-opacity="0.3"/>
<path d="M435.718 235.258C443.227 235.258 449.314 229.171 449.314 221.663C449.314 214.154 443.227 208.067 435.718 208.067C428.21 208.067 422.123 214.154 422.123 221.663C422.123 229.171 428.21 235.258 435.718 235.258Z" fill="#F1F1F1" fill-opacity="0.3"/>
<path d="M92.9381 269.485C100.447 269.485 106.533 263.398 106.533 255.89C106.533 248.381 100.447 242.294 92.9381 242.294C85.4297 242.294 79.3428 248.381 79.3428 255.89C79.3428 263.398 85.4297 269.485 92.9381 269.485Z" fill="#F1F1F1" fill-opacity="0.3"/>
<path d="M37.4747 275.725C44.9831 275.725 51.07 269.638 51.07 262.13C51.07 254.621 44.9831 248.535 37.4747 248.535C29.9662 248.535 23.8794 254.621 23.8794 262.13C23.8794 269.638 29.9662 275.725 37.4747 275.725Z" fill="#F1F1F1" fill-opacity="0.3"/>
<path d="M13.5953 148.147C21.1037 148.147 27.1906 142.06 27.1906 134.551C27.1906 127.043 21.1037 120.956 13.5953 120.956C6.08679 120.956 0 127.043 0 134.551C0 142.06 6.08679 148.147 13.5953 148.147Z" fill="#F1F1F1" fill-opacity="0.3"/>
<path d="M68.0763 133.628C75.5848 133.628 81.6716 127.541 81.6716 120.033C81.6716 112.524 75.5848 106.437 68.0763 106.437C60.5678 106.437 54.481 112.524 54.481 120.033C54.481 127.541 60.5678 133.628 68.0763 133.628Z" fill="#F1F1F1" fill-opacity="0.3"/>
<path d="M406.553 92.1732C414.062 92.1732 420.149 86.0864 420.149 78.5779C420.149 71.0695 414.062 64.9827 406.553 64.9827C399.045 64.9827 392.958 71.0695 392.958 78.5779C392.958 86.0864 399.045 92.1732 406.553 92.1732Z" fill="#F1F1F1" fill-opacity="0.3"/>
<path d="M525.185 219.848C532.693 219.848 538.78 213.761 538.78 206.253C538.78 198.745 532.693 192.658 525.185 192.658C517.677 192.658 511.59 198.745 511.59 206.253C511.59 213.761 517.677 219.848 525.185 219.848Z" fill="#F1F1F1" fill-opacity="0.3"/>
<path d="M492.363 27.1906C499.872 27.1906 505.959 21.1038 505.959 13.5953C505.959 6.08684 499.872 0 492.363 0C484.855 0 478.768 6.08684 478.768 13.5953C478.768 21.1038 484.855 27.1906 492.363 27.1906Z" fill="#F1F1F1" fill-opacity="0.3"/>
<path d="M400.857 44.256C408.365 44.256 414.452 38.1692 414.452 30.6607C414.452 23.1523 408.365 17.0654 400.857 17.0654C393.349 17.0654 387.262 23.1523 387.262 30.6607C387.262 38.1692 393.349 44.256 400.857 44.256Z" fill="#F1F1F1" fill-opacity="0.3"/>
<path d="M324.885 219.371C332.393 219.371 338.48 213.284 338.48 205.776C338.48 198.267 332.393 192.18 324.885 192.18C317.376 192.18 311.29 198.267 311.29 205.776C311.29 213.284 317.376 219.371 324.885 219.371Z" fill="#F1F1F1" fill-opacity="0.3"/>
<path d="M285.789 179.539C293.297 179.539 299.384 173.453 299.384 165.944C299.384 158.436 293.297 152.349 285.789 152.349C278.28 152.349 272.193 158.436 272.193 165.944C272.193 173.453 278.28 179.539 285.789 179.539Z" fill="#F1F1F1" fill-opacity="0.3"/>
<path d="M217.428 227.362C224.936 227.362 231.023 221.275 231.023 213.767C231.023 206.258 224.936 200.171 217.428 200.171C209.919 200.171 203.833 206.258 203.833 213.767C203.833 221.275 209.919 227.362 217.428 227.362Z" fill="#F1F1F1" fill-opacity="0.3"/>
<path d="M245.163 293.397C252.671 293.397 258.758 287.31 258.758 279.802C258.758 272.293 252.671 266.206 245.163 266.206C237.654 266.206 231.567 272.293 231.567 279.802C231.567 287.31 237.654 293.397 245.163 293.397Z" fill="#F1F1F1" fill-opacity="0.3"/>
<path d="M406.585 525.473C414.093 525.473 420.18 519.386 420.18 511.877C420.18 504.369 414.093 498.282 406.585 498.282C399.076 498.282 392.989 504.369 392.989 511.877C392.989 519.386 399.076 525.473 406.585 525.473Z" fill="#F1F1F1" fill-opacity="0.3"/>
<path d="M133.123 525.473C140.631 525.473 146.718 519.386 146.718 511.877C146.718 504.369 140.631 498.282 133.123 498.282C125.614 498.282 119.527 504.369 119.527 511.877C119.527 519.386 125.614 525.473 133.123 525.473Z" fill="#F1F1F1" fill-opacity="0.3"/>
</svg>
