<svg id="scroll-down-icon" width="100%" height="100%" viewBox="0 0 700 700" version="1.1" xmlns="http://www.w3.org/2000/svg" xmlns:xlink="http://www.w3.org/1999/xlink" xml:space="preserve" xmlns:serif="http://www.serif.com/" style="fill-rule:evenodd;clip-rule:evenodd;stroke-linejoin:round;stroke-miterlimit:2;"><path d="M16.934,391.302c-3.019,-2.424 -4.908,-5.992 -5.217,-9.859c-0.304,-3.863 0.996,-7.681 3.597,-10.557c2.601,-2.871 6.277,-4.544 10.149,-4.623c3.877,-0.078 7.612,1.448 10.326,4.216l313.511,282.542l314.919,-284.238c5.805,-4.667 14.242,-3.995 19.237,1.526c5.001,5.521 4.829,13.982 -0.383,19.296l-324.341,292.82c-5.359,4.829 -13.501,4.829 -18.855,-0l-322.943,-291.123Z" style="fill:#efefef;fill-rule:nonzero;"/><path d="M16.934,391.302c-3.019,-2.424 -4.908,-5.992 -5.217,-9.859c-0.304,-3.863 0.996,-7.681 3.597,-10.557c2.601,-2.871 6.277,-4.544 10.149,-4.623c3.877,-0.078 7.612,1.448 10.326,4.216l313.511,282.542l314.919,-284.238c5.805,-4.667 14.242,-3.995 19.237,1.526c5.001,5.521 4.829,13.982 -0.383,19.296l-324.341,292.82c-5.359,4.829 -13.501,4.829 -18.855,-0l-322.943,-291.123Z" style="fill:#efefef;fill-rule:nonzero;"/></svg>