<svg width="49" height="50" viewBox="0 0 49 50" fill="none" xmlns="http://www.w3.org/2000/svg">
<path d="M48.9584 25C48.9584 11.2188 37.9792 -4.79916e-07 24.4792 -1.07002e-06C10.9792 -1.66012e-06 -1.21729e-05 11.2187 -1.27753e-05 25C-1.33777e-05 38.7813 10.9792 50 24.4792 50C37.9792 50 48.9584 38.7813 48.9584 25ZM2.08338 25C2.08338 12.3646 12.1354 2.0833 24.4792 2.0833C36.8229 2.0833 46.875 12.3646 46.875 25C46.875 37.6355 36.8334 47.9167 24.4792 47.9167C12.125 47.9167 2.08338 37.6354 2.08338 25Z" fill="#171D1A"/>
<path d="M25.3125 36.0625L38.3437 18.323C38.6979 17.8647 38.6145 17.2188 38.1562 16.8647C37.6979 16.5105 37.052 16.5939 36.6979 17.0522C36.6875 17.0626 36.6771 17.0834 36.6667 17.0939L24.4792 33.6875L12.3021 17.0938C11.9584 16.625 11.3126 16.5313 10.8438 16.875C10.3751 17.2188 10.2813 17.8646 10.6251 18.3333L23.6354 36.073C23.9792 36.5417 24.625 36.6355 25.0937 36.2917C25.1771 36.2188 25.25 36.1458 25.3125 36.0625Z" fill="#171D1A"/>
</svg>
