<svg width="50" height="50" viewBox="0 0 50 50" fill="none" xmlns="http://www.w3.org/2000/svg">
<path d="M49.4792 25C49.4792 11.2188 38.5 -4.79916e-07 25 -1.07002e-06C11.5 -1.66012e-06 0.520801 11.2187 0.5208 25C0.5208 38.7813 11.5 50 25 50C38.5 50 49.4792 38.7813 49.4792 25ZM2.6042 25C2.6042 12.3646 12.6562 2.0833 25 2.0833C37.3437 2.0833 47.3958 12.3646 47.3958 25C47.3958 37.6355 37.3542 47.9167 25 47.9167C12.6458 47.9167 2.6042 37.6354 2.6042 25Z" fill="#F1F1F1"/>
<path d="M25.8333 36.0625L38.8645 18.3229C39.2187 17.8646 39.1353 17.2187 38.677 16.8646C38.2187 16.5104 37.5728 16.5938 37.2187 17.0521C37.2083 17.0626 37.1979 17.0834 37.1875 17.0938L25 33.6875L12.8229 17.0937C12.4792 16.625 11.8334 16.5312 11.3646 16.875C10.8959 17.2187 10.8021 17.8645 11.1459 18.3333L24.1562 36.0729C24.5 36.5417 25.1458 36.6354 25.6145 36.2917C25.6979 36.2187 25.7708 36.1458 25.8333 36.0625Z" fill="#F1F1F1"/>
</svg>
