<?xml version="1.0" encoding="UTF-8" standalone="no"?><!DOCTYPE svg PUBLIC "-//W3C//DTD SVG 1.1//EN" "http://www.w3.org/Graphics/SVG/1.1/DTD/svg11.dtd"><svg width="100%" height="100%" viewBox="0 0 87 82" version="1.1" xmlns="http://www.w3.org/2000/svg" xmlns:xlink="http://www.w3.org/1999/xlink" xml:space="preserve" xmlns:serif="http://www.serif.com/" style="fill-rule:evenodd;clip-rule:evenodd;stroke-linecap:round;stroke-linejoin:round;stroke-miterlimit:1.5;"><g><path d="M45.284,54.195c4.219,-3.741 6.88,-9.201 6.88,-15.278c0,-8.586 -5.311,-15.94 -12.825,-18.955c-0.07,-0.637 -0.106,-1.284 -0.106,-1.939c-0,-9.671 7.851,-17.523 17.522,-17.523c9.671,0 17.523,7.852 17.523,17.523c0,6.568 -3.622,12.297 -8.975,15.297c7.675,0.37 18.699,14.046 20.272,20.523l-40.291,0.352c-1.093,0.97 -2.292,1.824 -3.576,2.544c8.942,0.43 21.785,16.364 23.617,23.91l-64.825,0.566l0.609,-5.307c1.83,-7.111 12.352,-18.016 20.873,-19.064c-6.341,-3.464 -10.647,-10.197 -10.647,-17.927c0,-11.267 9.148,-20.415 20.415,-20.415c2.681,0 5.243,0.519 7.589,1.46" style="fill:none;stroke:#fff;stroke-width:1px;"/></g></svg>